<mxfile host="app.diagrams.net" modified="2022-08-12T21:57:24.022Z" agent="5.0 (Windows NT 10.0; Win64; x64) AppleWebKit/537.36 (KHTML, like Gecko) Chrome/104.0.0.0 Safari/537.36" etag="VOsNqiNHFr_oDd7fydzD" version="20.2.3" type="github">
  <diagram id="Nlz8M4N_tZZG5wbR8lqt" name="Page-1">
    <mxGraphModel dx="3419" dy="2314" grid="1" gridSize="10" guides="1" tooltips="1" connect="1" arrows="1" fold="1" page="1" pageScale="1" pageWidth="850" pageHeight="1100" math="0" shadow="0">
      <root>
        <mxCell id="0" />
        <mxCell id="1" parent="0" />
        <mxCell id="Z946En1CuJWLNQMD-FcK-44" style="edgeStyle=orthogonalEdgeStyle;rounded=0;orthogonalLoop=1;jettySize=auto;html=1;" edge="1" parent="1" source="Z946En1CuJWLNQMD-FcK-1" target="Z946En1CuJWLNQMD-FcK-42">
          <mxGeometry relative="1" as="geometry">
            <mxPoint x="-180" y="120" as="targetPoint" />
          </mxGeometry>
        </mxCell>
        <mxCell id="Z946En1CuJWLNQMD-FcK-1" value="" style="verticalLabelPosition=bottom;html=1;verticalAlign=top;align=center;strokeColor=none;fillColor=#00BEF2;shape=mxgraph.azure.azure_subscription;" vertex="1" parent="1">
          <mxGeometry x="120" y="60" width="50" height="35" as="geometry" />
        </mxCell>
        <mxCell id="Z946En1CuJWLNQMD-FcK-2" value="Resource Group" style="fontStyle=0;verticalAlign=top;align=center;spacingTop=-2;fillColor=none;rounded=0;whiteSpace=wrap;html=1;strokeColor=#919191;strokeWidth=2;dashed=1;container=1;collapsible=0;expand=0;recursiveResize=0;" vertex="1" parent="1">
          <mxGeometry x="45" y="150" width="200" height="200" as="geometry" />
        </mxCell>
        <mxCell id="Z946En1CuJWLNQMD-FcK-14" value="Project DBTime" style="text;html=1;strokeColor=none;fillColor=none;align=center;verticalAlign=middle;whiteSpace=wrap;rounded=0;" vertex="1" parent="Z946En1CuJWLNQMD-FcK-2">
          <mxGeometry x="68" y="70" width="60" height="30" as="geometry" />
        </mxCell>
        <mxCell id="Z946En1CuJWLNQMD-FcK-3" value="Subscripton Lab" style="text;html=1;strokeColor=none;fillColor=none;align=center;verticalAlign=middle;whiteSpace=wrap;rounded=0;" vertex="1" parent="1">
          <mxGeometry x="115" y="95" width="60" height="30" as="geometry" />
        </mxCell>
        <mxCell id="Z946En1CuJWLNQMD-FcK-4" value="Resource Group" style="fontStyle=0;verticalAlign=top;align=center;spacingTop=-2;fillColor=none;rounded=0;whiteSpace=wrap;html=1;strokeColor=#919191;strokeWidth=2;dashed=1;container=1;collapsible=0;expand=0;recursiveResize=0;" vertex="1" parent="1">
          <mxGeometry x="270" y="150" width="200" height="200" as="geometry" />
        </mxCell>
        <mxCell id="Z946En1CuJWLNQMD-FcK-15" value="Project IoT" style="text;html=1;strokeColor=none;fillColor=none;align=center;verticalAlign=middle;whiteSpace=wrap;rounded=0;" vertex="1" parent="Z946En1CuJWLNQMD-FcK-4">
          <mxGeometry x="70" y="70" width="60" height="30" as="geometry" />
        </mxCell>
        <mxCell id="Z946En1CuJWLNQMD-FcK-45" style="edgeStyle=orthogonalEdgeStyle;rounded=0;orthogonalLoop=1;jettySize=auto;html=1;" edge="1" parent="1" source="Z946En1CuJWLNQMD-FcK-6" target="Z946En1CuJWLNQMD-FcK-42">
          <mxGeometry relative="1" as="geometry" />
        </mxCell>
        <mxCell id="Z946En1CuJWLNQMD-FcK-6" value="Subscripton DEMO&lt;br&gt;Clients" style="text;html=1;strokeColor=none;fillColor=none;align=center;verticalAlign=middle;whiteSpace=wrap;rounded=0;" vertex="1" parent="1">
          <mxGeometry x="112.5" y="440" width="65" height="60" as="geometry" />
        </mxCell>
        <mxCell id="Z946En1CuJWLNQMD-FcK-7" value="" style="verticalLabelPosition=bottom;html=1;verticalAlign=top;align=center;strokeColor=none;fillColor=#00BEF2;shape=mxgraph.azure.azure_subscription;" vertex="1" parent="1">
          <mxGeometry x="120" y="410" width="50" height="35" as="geometry" />
        </mxCell>
        <mxCell id="Z946En1CuJWLNQMD-FcK-11" value="Resource Group" style="fontStyle=0;verticalAlign=top;align=center;spacingTop=-2;fillColor=none;rounded=0;whiteSpace=wrap;html=1;strokeColor=#919191;strokeWidth=2;dashed=1;container=1;collapsible=0;expand=0;recursiveResize=0;" vertex="1" parent="1">
          <mxGeometry x="45" y="520" width="200" height="200" as="geometry" />
        </mxCell>
        <mxCell id="Z946En1CuJWLNQMD-FcK-30" value="Sicredi" style="text;html=1;strokeColor=none;fillColor=none;align=center;verticalAlign=middle;whiteSpace=wrap;rounded=0;" vertex="1" parent="Z946En1CuJWLNQMD-FcK-11">
          <mxGeometry x="70" y="80" width="60" height="30" as="geometry" />
        </mxCell>
        <mxCell id="Z946En1CuJWLNQMD-FcK-12" value="Resource Group" style="fontStyle=0;verticalAlign=top;align=center;spacingTop=-2;fillColor=none;rounded=0;whiteSpace=wrap;html=1;strokeColor=#919191;strokeWidth=2;dashed=1;container=1;collapsible=0;expand=0;recursiveResize=0;" vertex="1" parent="1">
          <mxGeometry x="270" y="520" width="200" height="200" as="geometry" />
        </mxCell>
        <mxCell id="Z946En1CuJWLNQMD-FcK-31" value="Randon" style="text;html=1;strokeColor=none;fillColor=none;align=center;verticalAlign=middle;whiteSpace=wrap;rounded=0;" vertex="1" parent="Z946En1CuJWLNQMD-FcK-12">
          <mxGeometry x="70" y="85" width="60" height="30" as="geometry" />
        </mxCell>
        <mxCell id="Z946En1CuJWLNQMD-FcK-43" style="edgeStyle=orthogonalEdgeStyle;rounded=0;orthogonalLoop=1;jettySize=auto;html=1;" edge="1" parent="1" source="Z946En1CuJWLNQMD-FcK-23" target="Z946En1CuJWLNQMD-FcK-42">
          <mxGeometry relative="1" as="geometry" />
        </mxCell>
        <mxCell id="Z946En1CuJWLNQMD-FcK-23" value="" style="verticalLabelPosition=bottom;html=1;verticalAlign=top;align=center;strokeColor=none;fillColor=#00BEF2;shape=mxgraph.azure.azure_subscription;" vertex="1" parent="1">
          <mxGeometry x="117.5" y="-290" width="50" height="35" as="geometry" />
        </mxCell>
        <mxCell id="Z946En1CuJWLNQMD-FcK-24" value="Resource Group" style="fontStyle=0;verticalAlign=top;align=center;spacingTop=-2;fillColor=none;rounded=0;whiteSpace=wrap;html=1;strokeColor=#919191;strokeWidth=2;dashed=1;container=1;collapsible=0;expand=0;recursiveResize=0;" vertex="1" parent="1">
          <mxGeometry x="42.5" y="-200" width="200" height="200" as="geometry" />
        </mxCell>
        <mxCell id="Z946En1CuJWLNQMD-FcK-25" value="IaC Validation" style="text;html=1;strokeColor=none;fillColor=none;align=center;verticalAlign=middle;whiteSpace=wrap;rounded=0;" vertex="1" parent="Z946En1CuJWLNQMD-FcK-24">
          <mxGeometry x="68" y="70" width="60" height="30" as="geometry" />
        </mxCell>
        <mxCell id="Z946En1CuJWLNQMD-FcK-26" value="Subscripton Playground" style="text;html=1;strokeColor=none;fillColor=none;align=center;verticalAlign=middle;whiteSpace=wrap;rounded=0;" vertex="1" parent="1">
          <mxGeometry x="112.5" y="-255" width="60" height="30" as="geometry" />
        </mxCell>
        <mxCell id="Z946En1CuJWLNQMD-FcK-27" value="Resource Group" style="fontStyle=0;verticalAlign=top;align=center;spacingTop=-2;fillColor=none;rounded=0;whiteSpace=wrap;html=1;strokeColor=#919191;strokeWidth=2;dashed=1;container=1;collapsible=0;expand=0;recursiveResize=0;" vertex="1" parent="1">
          <mxGeometry x="267.5" y="-200" width="200" height="200" as="geometry" />
        </mxCell>
        <mxCell id="Z946En1CuJWLNQMD-FcK-28" value="POC Monitoramento&lt;br&gt;" style="text;html=1;strokeColor=none;fillColor=none;align=center;verticalAlign=middle;whiteSpace=wrap;rounded=0;" vertex="1" parent="Z946En1CuJWLNQMD-FcK-27">
          <mxGeometry x="70" y="70" width="60" height="30" as="geometry" />
        </mxCell>
        <mxCell id="Z946En1CuJWLNQMD-FcK-48" value="" style="aspect=fixed;html=1;points=[];align=center;image;fontSize=12;image=img/lib/azure2/monitor/SAP_Azure_Monitor.svg;" vertex="1" parent="Z946En1CuJWLNQMD-FcK-27">
          <mxGeometry x="22.5" y="122" width="70" height="56.00000000000001" as="geometry" />
        </mxCell>
        <mxCell id="Z946En1CuJWLNQMD-FcK-29" value="Resource Group" style="fontStyle=0;verticalAlign=top;align=center;spacingTop=-2;fillColor=none;rounded=0;whiteSpace=wrap;html=1;strokeColor=#919191;strokeWidth=2;dashed=1;container=1;collapsible=0;expand=0;recursiveResize=0;" vertex="1" parent="1">
          <mxGeometry x="497.5" y="-200" width="200" height="200" as="geometry" />
        </mxCell>
        <mxCell id="Z946En1CuJWLNQMD-FcK-33" value="Training" style="text;html=1;strokeColor=none;fillColor=none;align=center;verticalAlign=middle;whiteSpace=wrap;rounded=0;" vertex="1" parent="Z946En1CuJWLNQMD-FcK-29">
          <mxGeometry x="70" y="70" width="60" height="30" as="geometry" />
        </mxCell>
        <mxCell id="Z946En1CuJWLNQMD-FcK-40" value="" style="aspect=fixed;html=1;points=[];align=center;image;fontSize=12;image=img/lib/azure2/containers/Kubernetes_Services.svg;" vertex="1" parent="Z946En1CuJWLNQMD-FcK-29">
          <mxGeometry x="12.5" y="130" width="68" height="60" as="geometry" />
        </mxCell>
        <mxCell id="Z946En1CuJWLNQMD-FcK-47" value="" style="sketch=0;aspect=fixed;html=1;points=[];align=center;image;fontSize=12;image=img/lib/mscae/Docker.svg;" vertex="1" parent="Z946En1CuJWLNQMD-FcK-29">
          <mxGeometry x="122.5" y="130" width="50" height="41" as="geometry" />
        </mxCell>
        <mxCell id="Z946En1CuJWLNQMD-FcK-34" value="" style="sketch=0;aspect=fixed;html=1;points=[];align=center;image;fontSize=12;image=img/lib/mscae/Automation.svg;" vertex="1" parent="1">
          <mxGeometry x="230" y="71" width="50" height="50" as="geometry" />
        </mxCell>
        <mxCell id="Z946En1CuJWLNQMD-FcK-37" value="" style="sketch=0;aspect=fixed;html=1;points=[];align=center;image;fontSize=12;image=img/lib/mscae/Automation.svg;" vertex="1" parent="1">
          <mxGeometry x="230" y="-290" width="50" height="50" as="geometry" />
        </mxCell>
        <mxCell id="Z946En1CuJWLNQMD-FcK-38" value="" style="sketch=0;aspect=fixed;html=1;points=[];align=center;image;fontSize=12;image=img/lib/mscae/Automation.svg;" vertex="1" parent="1">
          <mxGeometry x="220" y="420" width="50" height="50" as="geometry" />
        </mxCell>
        <mxCell id="Z946En1CuJWLNQMD-FcK-42" value="" style="sketch=0;outlineConnect=0;fontColor=#232F3E;gradientColor=none;fillColor=#3F8624;strokeColor=none;dashed=0;verticalLabelPosition=bottom;verticalAlign=top;align=center;html=1;fontSize=12;fontStyle=0;aspect=fixed;pointerEvents=1;shape=mxgraph.aws4.iot_sitewise_asset_hierarchy;" vertex="1" parent="1">
          <mxGeometry x="-270" y="71" width="78" height="78" as="geometry" />
        </mxCell>
        <mxCell id="Z946En1CuJWLNQMD-FcK-46" value="Azure management groups&amp;nbsp;" style="text;html=1;strokeColor=none;fillColor=none;align=center;verticalAlign=middle;whiteSpace=wrap;rounded=0;" vertex="1" parent="1">
          <mxGeometry x="-360" y="80.5" width="80" height="59" as="geometry" />
        </mxCell>
        <mxCell id="Z946En1CuJWLNQMD-FcK-49" value="" style="shape=image;verticalLabelPosition=bottom;labelBackgroundColor=default;verticalAlign=top;aspect=fixed;imageAspect=0;image=data:image/png,iVBORw0KGgoAAAANSUhEUgAABMQAAAFLCAIAAAC2jMcHAAAAAXNSR0IArs4c6QAAAARnQU1BAACxjwv8YQUAAAAJcEhZcwAADsMAAA7DAcdvqGQAAEG4SURBVHhe7d1PbxzXmajx0RcwmQ8gSt5LuvI6jhHfnRUaUVZWRr6w4g0ByYA8GxlXd2HFkYChIcCEFYDSZmRzccNFMKI3phYXoQx4NF7IFAyYMTwwJcgjZuEIEhBfwAsDd+7rnDM9nberq09VvXXqnKrnxQ+BI3ZX9T826+mu6v67//voPwAAAAAAqISYBAAAAABURkwCAAAAACojJgEAAAAAlRGTAAAAAIDKiEkAAAAAQGXEJAAAAACgMmISAAAAAFAZMQkAAAAAqIyYBAAAAABURkwCAAAAACojJgEAAAAAlRGTAAAAAIDKiEkAAAAAQGXEJAAAAACgMmISAAAAAFAZMQkAAAAAqIyYBAAAAABURkwCAAAAACojJgEAAAAAlRGTAAAAAIDKiEkAAAAAQGXEJAAAAACgMmISAAAAAFAZMQkAAAAAqIyYBAAAAABURkwCAAAAACojJgEAAAAAlRGTAAAAAIDKiEkAoXa271+7cn2avd0n6vQhNje21HJGNj/YUifuk7mn5n/y458uHjt+/tyF9bUbt2/dfVjrBgynbt5x9e47IZd55+59ufxqgUL+Ue7BCNcLAAB0hZgEEEra4O+mj0SFOn2Ik7885c8/MdJa6sR94q/k386B/QflWtdOu3J+HUVT6b6TOJRWlDtOLq0//6wZlfPyxRV5FJGXAAD0AzEJIBQxachfyaKpd0vO5JdeNIFr3Nm+f3rprJShP1uDuXrlPbVwAACQHWISQChi0pC/kkWTZkyeP3fBn9pi5LGklg8AALJDTAIIRUwa8leyaFKLyYe7Tw4fOupPajS3b91VawEAANkhJgGEIiYN+StZNKnFpHlJyqhVAACAHPEXHUAoYtKQv5JFk1RMnll63Z/IbqRO1VoAAECOiEkAoYhJQ/5KFk06Mbmzfd+fwnT6fc8CADAcxCSAUMSkIX8liyadmDx54hV/illzYP/BI4eOyl02Iv8yN1f8ua9nll5XKwIAADkiJgGEIiYN+StZNC3FpCx2GnXKEX+Bpo/cR9euXC//3kj5qTxy1tduLF9cOb10Vs4i/6FOAwAAckRMAghFTBryV7Jo6t2S5srvbpnz595UZwEAAINCTAIIRUwa8leyaBKJyeVLK/4CFc3JE6fU6QEAwNAQkwBCEZOG/JUsmkRisvxzXOXBoE4PAACGhpgEECrNmHy4+0RWvb5249qV68sXV86fuzBO/lF+ZPUV+bIcWaAs9vTSWbnk4+Rf3OrkVgpZnb+SRTPtlpRrqi6A/MfVK+/tbLcSn7J8f4GKRp24PZPX2pH/K3e34Z1bTu5WWZf6x6rknpUrMv4olf+WJZcfdAoAQLKISQChEolJ94EushW+eOz4gf0H/akDRhYo56qRXrI6uZxzTxV/Num0OXLo6MkTp/amdII/UdGM35JyZSU/ZO3l11RWNPN6yRKmKbzvSu6aCF8UKVdc7iy5y0Ju9oX9B+UWCI89ub7qFnBOT3zMrFwMST65K2UthddaLqFaiJAHzPhpQh4/cvnjVDEAAIZSjMn1X+/s/fE79Y8AOpdITE77wonwkWaY1niKFJpcDH+2WqMWOOJ/XDTulpRbu9KqJajKe9KfrmiqxuS0u8aE67eq6e5GboSrV95TC5wk19ef4W9nPBcnL4YsfPTTEUlH/+Oxcd99UuOKTNYsAAApSzEm/9d//z9ic/Xeowffqx8B6FAiMeneJmo4M9NLyAnkZP4MtUa6Vy1zxJ+iaCRF6qWU3DJqLeP8iYomnZhsfpvLzHyxYFpMuvurJALHF+IUxqQsR35Z6l2RVkMdAABb6cakePulj2///k/qpwC6kkhMlpyl0si2fnlyNK+akt1B/Smsp+R9OX+KokkkJk1K0o10dcmdOy0mZa7+9r2SyzB5QxXGZMPh/UkAQC6SjslRUrLXK5CCRGKy/CsrKs35cxfUwkeuXrnuT9RgSqLLn8J66q0xhZg0LEk3JV9eUhKT5TN5WGMbMSnD8ZMAgCxkEJMOB1ICnUskJtfXNvwpGs/c3Py0969k7f5EDUaunVrsiD9FCzPtGvkfF00KMXnyxCt+6XYjj1i1Fqd2TE6+8dtSTLqjLgEASFw2MSl+8+KtzdV76sQAoimPSfmpbKNXtfjCz/35J2Zasci5/Cn+c2SDXsjphSSQcP8d8lE90/YLLT+vW9H5//yCB/eVFfKPRw4dHT9jyTuf/hQtzLQ3tfyPi0ZuUnViETMmd7aD6k7uZbmFZe2BCTdtN+PJh1DgLF9aUYuqFJPy2HCP1ZmPTDmBWhEAAAnKKSYdDqQEulIek+ZTUizSOct//Y7BwgoaJ5VS/paXLEqdReztPvE/LprlS++o0ysP//rViOVfgeiXVWUkMFSsFs60PPY/LprOY/LM0ut+0UUjV/n8uTflVlXnkgfkzPczC9+crBeTcq0nlxYSk3KvyeVXDwZ5ZMoC/SmKhj1dAQDpyy8mnfff+Iy9XoHI0onJqkpapfDNq5LYsHrLyC9u1kirnF46q7JZatb/uGhyjEnJLb/oiVlYmPG5u+W3RuH+olVjsjAjnfKYlAs/7Yxib/eJnMCfdGJKPksJAIBE5BqTDgdSAjHlG5Ml7zQWxmHJNV0o+rLBGvzipoxcKmnIkg4peVMru5gsfx84pKlK3p+s+mKBmpKMdEpi8szS2cl3U5Xz5y74U09MyT7SAAAkIu+YFOz1CkSTb0yKko1+dUpREhsRYjIkQkpKL7uYLEv3haBbu2QJhS8WhMRk+ZuKIyWPq8JbVbk2/UOD5fZXJwYAIDXZx6QjSbm9+Y1aDgBbxKSb8r0uA/llFU1IhPQpJks+njdwReXvbcpP1enL799ph2gWahiTJb9TxCQAIH09iUmHvV6BVg0nJsvjZGH/webHs/llFc3QYtLk3Tl/hqKZvHblMVnpxQJiEgAwZL2KSWdz9d6jB9+rZQJobjgxKeZmfnnDU/OLx44vX1yp96mbfilFQ0yOppOYVCcuR0wCAIashzEpOJASaEN5TLovAKyq5NMs5afqAjRRNSZLUmpyFvYfPHni1PrajcB9I4U/Z9EQk6MhJgEASFk/Y9KRpGSvV8BQeUyGbDpPalgsEm+3b92VGjl/7sLppbOytGlK3mlUy3Rqvw0rVSnnVUub5E9dNCG3pFwjf+qJISbVTF47+Rf/s6JRJy5HTAIAhqzPMelwICVgJamY3Nm+L/U499SMnVFDRi15pPyb9MtnYf+Mb0f0pyuakFuSmFT8GYpm8trJv/ifFY06cTliEgAwZP2PSfGbF29trt5TawFQVToxuXxpxZ/IYtTCx50/96Y/Ua25+tvirhP+FEUTcksSk4o/Q9FMXjv5F/+zolEnLkdMAgCGbBAx6XAgJdBQIjFpW5IyavnKzvb9ku/EL5+5ufnJ76Vw/CmKJuSWJCYVf4aimbx28i/+Z0WjTlyOmAQADNmAYtK59tqn7PUK1JNCTEraLUzffK83ahWFZL1Xr1yXi+TPEzznz11Qi3L8j4sm5JYkJhV/hqKZvHbyL/5nRaNOXI6YBAAM2eBi0uFASqCGFGJSis7/2G7UKmaS22H54kpgWE7rLv/jogm5JYlJxZ+haCavnfyL/1nRqBOXay8mbW9kAADaMNCYFG+/9PHW2tdq1QBKpBCT5Ql35NDRxWPHZZmT/CmKRq2ikvW1G+UXaWH/QXUWx/+4aEJuyZJrFCEmp12peojJwiEmAQDpG25MOhxICYRLISZLvuFDLp468cje7hN/oqJRJ66h/HNf1Ykd/7OiCbklu41JuRfUiZsgJguHmAQApG/oMemw1ysQovOYLGnCxWPH1YnHGcZDoRrL9z8rmpBbMkJMlhdySbpXtb624Rc6MeV360j5iwWTn4Fk+HggJgEAQ0ZM/pfN1XskJVCi85gsaYBpn3PjGMbDNH5ZRaNO6fifFU3ILRkhJss/NdcwdW7fuusXOjGBb4GWPDILl2D4eGgYkyXvygaGNAAAHSIm/wZ7vQIliMkSfllFo07p+J8VTcgtGSEmy+9umfLbPFz5+4rTrs64ku9uKYxew8dDw5gsueRyF6sTAwCQGmKygCTl7p2/qEsFIOWYLN/yrhEPD6d8P2ShkvfWZNSJHf+zogmKkPZjUpQcoepmYf/B5YsrcvXVGUdkyfLT9bUbcrLTS2cXjx2X+pqsULmv/RInRi7DznbZDSJL8yctmjNLr6vTixqPh2maxGT599xYtToAAO0hJqfiQEpA6TwmxbS8kX+fPDROSBNKxpR/NaU6i7O+tiHnkviRs8sVL2lL+dHiC8f9sibm8KGj6vSO/3HRhNyScWKy/LBJNZJV4/y/Fs1k+ZcHoczJE6dUssrNLvdLSYW6KQzdODEpl0362T1+Jm9h+cfyh6WcQJ0FAIDUEJMzbK7eUxcPGCzZuvXbuUUTJyaPHDrqfzwxsmkuHSUXUly7cl024mUJc0/NeG9NRq3CmewoWZSsXZYphSkX25H/Ll9F4bUQ/sdFk05M7mzfn/nmZI2ZvE32dp8ErsiVasjdKjOt5OPEZOG4y+//T+kUvjgCAEBSiMnZOJAScFKIyUrvlQWOWoUja/c/bjbLl1bUkh3/46JJJybF8qV3/InsRrJfrUXMfHOyxqyv3VBrcTqMycA5eYIDJgEAGSAmQ7376ifs9YqBSyEmyy9DvVGrcKzekZt2vJ//cdEkFZPi5ekfElN71CrE3u6ThQXLMDt/7k21ipH0Y7L8MFEAABJBTFbDgZQYshRiUli9ZzgatXwhm/L+Z82m5P0lf4qiSS0mhfkbwoVr/OEDaYx6UgJYLXxc4jFZksEAACSFmKzs7Zc+3lr7Wl1mYAgSicl6yVGSoGr5ouRr9MPn8OGjJR/b409UNAnGpLh65brhO4e/m7YDqkVPnlk6qxarpByT5RkMAEBSiMmaOJASA5RITIpKySHLkUsu55rWk+NLdiR1Sj7pJ2SkZ0pKUvjTFU2aMSnkZl++9E7z2Jubm58Wk07tcB3d1+WSjUm5edXyAQBIGTHZCHu9YlBu37orm87T1IvJM0uvq+WMLB47rk48bm/3iZy3JDlkCaeXzo6nhWypjy9/ZHQCRdppfe2GLEQSJfAQSjmZWuk06jKMC7klS263aZ2mTjau6n0nV/D8uQuBN4ucRlYh96bcMteuXC/5UkpFkvKHD8sNWIUsP/Bmd+T6jq77JHXicnJ6fyEmZvGF4+E3kVx+ebyphQMAkDhi0sDG5S9JSqArkhDLF1ekbWRzXP5X/lsKsPxdwXrcFxu679+XFY3WKKSR5N/r5XTu5GaRPpRbxt04clO4/5Z/lBvE5I5wy5clF97sbdzX4UpicvR4GD1yRlfBkQeS/MswHzYAgH4gJm2w1ysADFBITAIA0FfEpCVJyt07f1FXBwDQV8QkAGDIiEl7HEgJAANBTAIAhoyYbMvm6j11vQAAPUNMAgCGjJhs0fpbO+qqAQD6hJgEAAwZMdkiYhIA+o2YBAAMGTHZImISAPqNmAQADBkx2SJiEgD6jZgEAAwZMdmiaTHJZ73mgnsKQDliEgAwZMRki6bF5G9evMVnvSbu0YPv13+9c+21T9W/A8A4YhIAMGTEZIumxaT76dsvfXz7939SP0LnJCMl9d9avCX3ETEJoBwxCQAYMmKyReUx6UiusC9lOnY+eiyRP37vqBMAwDhiEgAwZMRki0Ji0ln/9Q5J2a3dO99KOqr7hZgEUK4wJufm5o8cOrq3+0SdGACAniEmWxQek4K9Xrvy6MH3G5f/Td0dDjEJoJzEpFg8dvz00tlrV66vr93gDUkAwHAQky2qFJOOJOX25jfq9GjP1vtfu8MjCxGTAAAAwDTEZItqxKTDXq8R7Hz0+N1XP1G3vEJMAgAAANMQky2qHZPO5uo9krINcqtOHh5ZiJgEAAAApiEmW9QwJgUHUtoa/9qPEMQkAAAAMA0x2aLmMelIUu7e+YtaCKqSLA/PSIeYBAAAAKYhJltkFZMOB1LWtvPR48D9WhViEgAAAJiGmGyRbUw6m6v31NJQQvJbIlzdhuGISQAAAGAaYrJFbcSk4EDKEFUPjyxETAIAAADTEJMtaikmHekc9nqdZuejx5Lc6hargZgEAAAApiEmW9RqTDocSKnUPjyyEDEJAAAATENMtihCTIq3X/p4a+1rtYoBevTg+43L/6ZunIaISQAAAGAaYrJFcWLSGfiBlFvvf93w8MhCxCQAwMTO3fu3b93d/GDr2pXrheRHQk7zcPeJOi8AJIuYbFHMmHQGuNer1eGRhYhJAEANko7Sh6eXzi4eO35g/8G/qz5yrp/8+Kdy9vPnLqyv3ZDIVKsAgBQQky2KH5POxuUvh5CUch0ND48sREwCAMJtfrAlAVmvHkNG8lKWL225s31frRoAOkFMtqirmBT93uvVfe2HusptICYBADM93H1y/tyFuafmffNFmYX9B0+eOEVVAugWMdmiDmPSkaTcvfMXtfbctXR4ZCFiEgBQopOMHM2+ffs2P9hSFwkAYiImW9R5TDq9OZDS9ms/QhCTAIBpli+tdJWRbiQm9/i0HgCdIiZblEhMOpur99TFyIjE8PtvfKauUQTEJABg0s72/Z/8+Kc+6bqb+fkfqQsGAJERky1KKiZFjgdSusMjo+3XqhCTAADl9tbdhdY+YqfSPPfs8+qyAUBkxGSLUotJ591XP8llr9ftzW/a+9qPEMQkAGCclGS3u7aOz4s/+4W6eAAQGTHZojRj0kn8QMr4h0cWIiaVzQ+2Duw/iNp+t3ZD3aQAMpJUScqcP3dBXUIAiIyYbFHKMSnefunjrbWv1WXr3KMH329c/jd1UbtCTCoSk34Thqk1V6+8p25SALnY2b6fyN6tbvbt28frUwA6R0y2KPGYdJI6kLLDwyMLEZMKMdlwiEkgX0mVpAzfCwIgBcRki7KISafzvV53Pnrc7eGRhYhJhZhsOMQkkKnz5y74X+Nkhu8FAZACYrJFGcWks3H5y/hJKWtM4fDIQsSkQkw2HGISyNHO9n3/O5zS8L0gAFJATLYou5gUMfd6TerwyELEpEJMNhxiEsjRyROv+N/hlObI4WfU5QSA+IjJFuUYk44k5c5Hj9XFtrX1/tdJHR5ZiJhUiMmGQ0wC2UnzbUkZvhcEQAqIyRblG5NOSwdSJvK1HyGISYWYbDjEJJCdNN+WlOF7QQCkgJhsUe4x6Wyu3lOXv7aUD48sREwqxGTDISaB7KT2Ia5u9u3bx/MJgBSkGJM3V3fVNn2m+hGTovmBlI8efJ/a136EICYVYrLhsPEH5CXZJz2+FwRAIlKMSbH3xXdSYmrLPju9iUlHkrLeXq8Sogl+7UcIYlIhJhsOMQnkJdl9XPleEACJSDQmne0Pv8k0QpyexaRT6UDKjA6PLERMKsRkwyEmgbykuY+rDN8LAiARScek86/Zvq/Vy5gUcnfMPJDy0YPvJTvVGbNDTCrEZMMhJoGMJPs5rjJ8LwiARGQQkyLTvV77GpOOJOX25jfqqjk5Hh5ZiJhUiMmGQ0wCGVlf2/C/ui3MT37809NLZ69duX771t2du/cf/nWfVflf+W8hT7ZCfnr+3AU5mZz4yKGj/px/Hb4XBEAi8ohJR5LyvTc+U5v7Ket3TIreX0FiUiEmGw4xCWTkzNLr/lfXdKQM5blUrSuQlOf62g3Jy+WLK+pHANCJnGLSyWivV2Iyd8SkQkw2HGISyIhUn//VtZvz595UawGArOUXk87N1d30d6QkJnNHTCrEZMMhJoGMqD1Lm8/JE6fUKgAgd7nGpEj/QEpiMnfEpEJMNhxiEsiI/701moWFgzvb99UqACB3GcekI0mZ7F6vxGTuiEmFmGw4xCSQi73dJ/731mh4WxJAL2Ufk06aB1ISk7kjJhVisuEQk0Audu4afy+IPH+qVQBAD/QkJsWjB9/fXN1VMdAtYjJ3xKRCTDYcYhLIhfnT3d5fv/wDAHqmPzHpJHUgJTGZO2JSISYbDjEJ5ML26W5ubl4tHwD6oW8x6Wx/+E0Ke70Sk7kjJhVisuEQk0AubJ/uDh86qpYPAP3Qz5h0Oj+QkpjMHTGpEJMNh5gEcmH7dPeTH/9ULR8A+qHPMSm63euVmMwdMZmI8+cu+C0yo5EFqlUAwLhrV6775wuLISYB9FXPY9KRpHzvjc9UJ0RATOaOmEwEMQkgMmISAEIMIiad+Hu9EpO5IyYTQUwCiIyYBIAQA4pJ5+bqbrSkJCZzR0wmgpgEEBkxCQAhBheTItqBlMRk7ojJRBCTACIjJgEgxBBj0pGkbPstSmIyd8RkIohJAJERkwAQYrgx6bR6ICUxmTtiMhHEJIDIiEkACDH0mBSPHnx/c3VXVYQJYjJ3xGQiiEkAkRGTABCCmPTaOJCSmMwdMZkIYhJAZMQkAIQgJv/GHz96bLjXKzGZO2IyEcQkgMiISQAIQUwWsDqQkpjMHTGZCGISQGTEJACEICaL7X3x3cblL1VaVEVM5o6YTAQxCSAyYhIAQhCTZRoeSElM5o6YTMRgY3Ln7v3bt+6ur92Q7drliytysQvJj+QEmx9sCTmLWggKuZtL/WNG5MLLY0P9Y3se7j5xj0ZZrzzYyh+QjntYyqPXXVRZglpm4uTC++cLi+lZTAY+NQn3aMn0MdAhuYXl5lX/2AMljxz5v/Lv8lN1lkTIJR89+41fbDF6hKuzDAcxOVvtvV6JydwRk4mQJ2u/RWY0skC1ihS4rYfTS2cXjx0/sP/g3FPz/uJWnyOHjspC5GrKAtmAGye3htws7rY9s/S6+mn6ZJNFHiHu8l+98p76aXPuQSjbRrKWk788JQnU8KE4PrIceWTKMmXhcuHluqi1J0VuBH+5LSbrmJStZPeQcE9N/irVGvcYGD077Wzz4tffkCcoaSp5tMhtdeTwM+qneXFPJnJ1ajxy3LNEV3kml9wVozwHysM1/JLLw1suuTy5De2BTUyGurm6WzUpicncEZOJkOd0/1RtNLJAtYquyKaD/NGSv1gNN9HKR/4cnjxxqqttdxcnTZj8YZar7zbRRiM3uzpNoeaXf69xz49vYo6m+cNYFuu29tw2k1U0Vhq31RjhwanulJlOnnjFX0SLWVg4qJbfUPMHVTm5R+QBJvdO24+Khf0HpTQ63P7e3PBvN9Vm9QQlt8P4rX1g4Wl1mkJNnqBsb3P3fCK/zoYPG3l4tPGqmSLVav40KPdmV39z4yMmK6i61ysxmTtiMhH9i8nCNogw8oc5flU2v5rLl1bUMsPJTS13d+H2weFDR9WJCzXv/N812F1NtvZk46zw8gfG8Di5NeTel8de1TcKIoxcR7lUsjGqLrMVv5pezL59+1r6LZbFTnu8RRjZlJcHZ8yq/PbP/09+j/zq685rS/+gFhvO/S2QK+6XNTZyL6sTT5LL3+QJ1uQFKYlSuQ1bfT5pIyldQLb9con8we3qVZKYiMnKJCnfffUTVR2FiMncEZOJ6FNMlrRBzInzcq/TPCZrVJOQzeKTJ14puanlRlBnKdR8I6leDMvlL7/pJL3UWQq5gHRvF/hzpj3uJQ/zLTC/9F6MZMaO6dHR/z79NZdORh6rcZ6gTGLyxZ/9Qi02xMzbPORebhiTzz37vFpgIPeUEvkFqdOND0wYpW/Mh/rc3HyT10OzQEzWFHIgJTGZO2IyEf2ISdk4tt1xrvnEScrmDSNLUMssNzPDRqPOWKj5BlPVgzMDL3/IO6sSnP7UGY5tUvqF9mIMYzK1jByfCE9QJjEZuD/qyOef3gv5WyD38syDBhvGpKwifH9p97JU5BJTc+TQ0Ro7eLu3f5v/JWoynWx1RENMNnJzdVflxzhiMnfEZCJyj0n5SyY54ded3khvtLofTvM/4YFvIYrwjHQTskXePCYD30IUlS5/yM1SuPtcRiPX0epFfb/EXow0gLp2NaSckePTalKaxOT8/I/UYqcJzEg3ci/P3EO+eUyG/H7J81IKO9S4Ce9J+cu7vnaj24Ycnx73JDHZVMmBlMRk7ojJRGQdk/JnWDaG/IoTnvb2wzH5Wz5z66FqRroJ+bTA5jEZUn31Lr9ayKTmG8opjGw+Nn+9wy+rFxNeL9P87/f/OYvnpdE89+zzbbzmZRKTkmQzX5aqlJFuZLEzK7phTMqU7Oma7MsNcpXVRVWSqt/x6WtPEpM2du98O7nXKzGZO2IyEfnGZMpvSE7O6aXX2/iISJOYLKm+JvsPh3w0jslxQWqZ4+plpJuZm7DLl1b8STMfKZ+Q8i/hF9SLqbpf5bh//+rxyyeyfIkh8G20SqxisuSZpEmSzfxT1Twm5+d/NPm0/2GDJ6U4M+2RkNRbkYUjT/jqMvcAMWlJHUhJTOaOmExEjjEphXM4wz0MTd4CUkz+tBe+Qv+w8QvnIdumJjFZWH1y+RseRjuzr9bXNvxJezFXf1t/d0e/iF5M7c9N+fzTe3m9ITk5L//yV4aveVnFZOEzybd//uGPV5MnqJf//ldqmUrzmJQLP8qbFI4tDJ/xP1XN/xZEG/kFbONF224Rk8b2vvhu4/KXLkWIydwRk4nILiblj1y+W2xyyW170mTTZPIu+93ajeY3csgjwSQmJ9+4MNn0mbkXnESsP2lfpnZP+vP3YurF5Icbf8hia3vmHFh42uo5yiQmZSa/HURu7eZPUDM/J7Z5TMqcWXo9lwNox0euuNwCGWXkaEL+7uSFmGyFO5CSmMwdMZkIeeb1z8FG0+pTedYl6UYuv+FLpyYxKRt8owXKLWz12vn4YqcxicnxNy42P9iyetc65J1Vf9K+zNzcfL39Xf35ezE1voti9cp1f+ZejFVPWsXk+D3y+af3Fl+w+RTlI4efGS22kElMyu9Upq8ynDzR5UfL1h65wXv25iQx2aLdO9+qf3FUseSLmEQcGcVkD0rSjXvR14RJ+I2+BkPyyXDrIeRqmsSk+3aQh9af6+sWW87k8ic19V7s8Gfuxczc+1HpWUm6MelJq5gcHcX6jxffMXyCmnlwrElMMvGnZ29OEpMdUMWSL2ISceQSk5IK/ShJN82/Idox2db54f2orbvmh6HK/aUu7SSTGFs8dnyzhc/1DXln1WRbObUJ/7aVEX/OXkylZ7B/+cO2P1vvRlqr4Ts8VjG5b9++zz+9Z951slh1gRViMtPp2ZuTxGQHVLHki5hEHLnEZF6f3RoyJp87l/K2jvxFV5d2Usrv7Mltqy7tJPNfn0Sm6oPTn60XE/4M1oNP3CmfGnv8jrOKSZk29reUmCz/xGZiMt8JOUghF8RkB1Sx5IuYRBxZxOTVPu5IVm9/QiXxbZ2ZVzDlmAx5Z/VaHx+ZMiHXfZw/W/4jgRH4Jf5SGv0uSRm5NZpslBvGZBsj1678CGFiMt8JeSkwF8RkB1Sx5IuYRBzpx2RvDpWcnOa3VeLbOjO/qjHxYw7VpZ0kG6P+pL2bwKZy/HnyHwmMkO9Hdd9L4c/T65lZXCXSj8ny+5qYzHf6tKcrMdmBvS++e++Nz1S35KjfMblx+ctHD75XVw2dSD8mG35bYMrT/A9e4ts6M7fLE4/JmfeOnMCftHdT6c1Jf578RwIjZBffzz+9588wgKn9xZvpx2T5KybEZNZjciBJCojJzvzr7//09ksfq4DJS19j8tprd6Z9Ei86kXhM7mz37av81DS8uRLf1pn57lbiMRnynkziV6HJhG+N+TPkPyFvxEljLB6z+XaKLEZuk3o7uyYekzLlT7/EZNYT8nHcWSAmO3ZzdTffpOxfTMp98cePHqurg84lHpM9flvSTcM3JxPf1pn5YEi8xEL2eFx84ef+1L0bKQF1ZafxZ8h/JJxm7pu9+u4/+VMPZubnf1TjaSr9mCz/GhhiMuuR+07doZkiJru398V3UmWqarLQp5h8a/GWhD37taYp5Zjs/duSbprcYolv68yskcRjMuS4wf59zvBowl/p8GfIfyQm1VVTJDB6/7k7hVPjaSr9mCz/uFpiMusJ+TjxLBCTqZCkzO4tyt7EpFwRMjJlKcdkJ29LSt448qfI/1PL0+RvXuLbOjO/sTDxmAx5MPf1A13dBO7p6k+d/8yMyQ83/uBPOrCp8eZk+jF55PAz6jKPIyZzn5l7GWSBmExLXgdS9iAmr712h/1a05dsTMb5aBPZVji9dHZ97Yb81XlYtKl0+9Zd2Z6WK9XqVkXtjwpIfFvn8KGj6gIricdkyH6eVT/QVa7ykUNHJbNl4fK4Wr64Ijkq5DEgZGnyUJzkfionk7PII1bu9zgvdgQed+RPnf8cWHhaXbVxUhfx92qWO1oeM3KPj4v5apcbyexKH/Ar0o/JmXe33NT+pEyGE3KcQvqIyeQ8evD9zdVd1Txpyjom31q8JemuLjnSlGxMtvrdkrIddv7cm4X1WGJn+/6ZpbMLC/b9U/ujAhLf1pn5pmviMTnznVUx7VUPue4Sja4YJQJdJarzNiTLlLBs4wE5mpkvBziuh8PZ7nQgt7Nafm3rpVufcT7EVR458rCRCyP3b/lzlPx084Ot5Ysr8kCN0JZVP9Y1/ZgsfyOamMx9qr78kSZiMlFZHEiZaUxyeGR2ko3J9v6KSxBWzchxkpTmn+VY9TviRxLf1pGLpy6wknJMytb5/zz3prrAhdy1kP+VTWfZsndvdKvTtOrqlevtJWWNT16ZSUrJL91iZj7MrLT90TtyRSQO1UrDycOg1ScESa9KD4b0Y1LyuOQaEZO5j9XWSLeIyQ5sb36j/mWaP370OOW9XnOMyWuv3ZFQVxcYiUszJlvax1XywGq/l/Pn3vQLNZp6+ZHmts4Pb62cOCXVrS7tpDRjUi5/pTeu5Zo2eXnChPzKmL/G4aZJ3kyTY0xKWhw5dNSv0noaZuS4373/zy29siAxWek7QlKOSXmCmnmDpxyT8swpl81p72HZxsizq1zgOJdcHn7qPs0RMdkBSZr1X+/s/TE0aZI9kDKvmHz31U84PDJTacbk+tqGX5zdyN+w21uzvzYwnO3HeNb7Jjf5e+zPn8ZUzbDUYrLq5U9NGz1Z75FZLseYbG8fV/P3Tx7uPm7pQ4Yr7emaYEzKL/jppbMhr3OJpGJSuksuufziTHvZUdo4wW/ScunoLnnhbtvyL+3tWEFMoqZR3myu3gvc2XLvi+82Ln85OmMiconJtxZvba09UBcSGUkzJtv4o7h86R21lob2dp8Y/gms92cvnW2dehmWTkzmnpGOPCblivirZDS1D+gtkWNMtrSPq3lJOhJC8nj267CbSnu6JhWTNX7BO49JucySYetrN8IvtoSZ+TNA1ZELILfb8sUV6dvwS97GwzXOM0PbiMkOjHfO2y99fDv4Y2BSO5Ayi5iUCOfwyNylGZPme7+cPNHKK5SGnxJU77DJFGKyxlbaSAox2eTyJ8j8NzrkU4iqyi4mpSva+BzXlkrS+eEyW79TLTEZvjtuOjFZ7zj5rmLSNWTt3Z6XL73jFxR35GLL3V0pIBXzW5uYRE2qdoQkZY57vSYekxwe2RsJxmQbB0wG7tdUg/wF9etoPOEv+Y90HpMNP82o25jsWUY65m9O1v50qBI5xqTcDn59RnPgQNn3Uph4+NVj2weDzGtL/6DWMk0KMRl48HahyDE5ijF1MWqIfLFldU0ackTuKb9Qo4nwzBABMdkB1TwjlQ6kvLm623lSJhuTcstweGSfJBiT8mfJL8toWnpb0jG8AW/fqnxIZ8yNBjVNttJGuorJXmbkiO17aHJbqeU3l11MSpX5lRlNpbf4mjDfO/fFn/1CrWKabmPyuWefb3iQfLSYlLUsX1wxfDpavrTiF93mLCwcNH8Wtb3BIzwzREBMdkCVz7jfvHhrc/WeOv00ne/1mmBM8rUfvZRgTNpuaMq0+s3Fhulb40ux4mzrqJGVWm0HdxKTJhmcMvNNSbX85rKLyQ83/uBXZjRVv7OxNiki2zcny7/of1xXMWn1BBUhJg2fS8fdvnXXr6CdaeliC9sPjorwzBABMdkB1T+Tqh5I+e6rn6glxJFaTMrlISN7KcGYNL9INXYfDWe4U26Nm67tbR01CwsHbbchIsdke9tASTH/MGTzr83MLib/8aLlcWj79u2L9nXq3/7Z+Bk1/DN44sekPEEZ3rDtxWTbe0YY/lVS0/ZTaHbPDBEQkx1QCTTNtdc+TfxAynRi8tprd9ivtccSjEnbnfQi/DmxKiLZ8FJLnqmlbZ3JcVs/au3NRYtJ2cps9Q3qpEj7+attNAOPSYkK2zdMpMdivjf+L1vbfsUWIxc+cIf8mDHZRp61EZNtZ+SIX5/dyE0R4ZU4YnISMdkBFULlqh5Iqc7eqhRiUhJaQlpdAPRMgjFp+/e7jS82UKzqt8bHZppv6xROw0/ZKREhJqNtvaXD/H0JYtL2Fa4jh59Rq2iVXH75LfDrbjzhb6tGi8kXj/2ijTg3j0m5nNGeiPwqjSbaG+nE5CRisgMqh2aquterNJ5aQku6jUkOjxyOBGPSNjCaX56ZrDaYDh86qpY8U9sxKctv9dXotmNSLn+/D4+cxl9/ozF/DGQXk7a/aC//8ldqFa2yjWGJyeVLK2oVhSLE5IEDT7f3BGV+v0f4YzTiV2k05i8nTUNMTiImO6CiKFClpNy9822EvV47jMn33/iMr/0YjgRj0vBFdJkIL6la3YY1voPBdltnfOReWL70jlqdufZi0vzwzrz4W8FoiEnDB2p4jFmRy2+7m27gk3yrMfnXPQ7abTNicjTEZIeIyQ6oLqqk0l6vbR9I2UlMcnjkAFmF0Gia/730CzKajGJSNo/UkmdqKSYXXzge5w29lmKyvf1yc+FvCKMhJv2aLEZiMv7hu7YfIPTy3we9s9peTD737PMRnqCIydEQkx0iJjug6qiGzdV7gUm598V3G5e/VGe3Ejkm31q8tbX2QK0LQ9D7mIzw9pThbaiWPJN5TEZ+Q888Jg8fPjrkNyRH/M1hNMSkX5PFSEzGf4heNf22yQ5jMs4eEw4xORpiskPEZAdUI9WTwoGUMWOSwyOHLLWYlD9afkFGQ0yGz8kTpyK/oWcbk2eWzqrlD5a/RYyGmPRrsphOYtL2ezK7isnnnn0+5hMUMTkaYrJDxGQHVCY1IUm5e+cvavnTmO/1Gicmr712h8MjB46YbM7wNqz6lZi22zrRPrJvxDYm42+jJ8vfIkYz8Jj8fPueX5PFSEwGfrWGIduYlKhTyy9kHpMxY0wQk6MhJjtETHZAxVJzlQ6k3Hr/a6ukbDsm5XJyeCQEMdmc4W1Y9W82MTk+xOSIv0WMhpj0a7IYiclom+YjxGQNxORoiMkOEZMdUMlkZXP1nlrRNFZ7vbYXk+5rP9RiMVjEZHPEZG3EZEv8LWI0xKRfk8UQk7WHmAznV2k0xGSHiMkOqHAyVPVAyndf/UQtoZKWYnLj8pccHolxvY/J5YsrsincqpMnzDaYiMkmI/eFWv5g+VvEaMxvWGJSraJtxGQNxORoiMkOEZMdUO1kThIxzteHmMckX/uBQr2PybyGmGwyxOSIv0WMhpj0a7IYYrL2EJPh/CqNhpjsEDHZAVVQLal0IOXN1V119hCGMSlBu735jVoO4BCTSQ0x2WSIyRF/ixgNMenXZDHEZO0hJsP5VRoNMdkhYrIDqqPaI4W2tfa1Wvs0NQ6kNIlJd3gk+7WiBDGZ1BCTTYaYHPG3iNEQk35NFkNM1h5iMpxfpdEQkx0iJjugaqptlQ6k3L3zbfher81jUpbA135gJmIyqSEmmwwxOeJvEaMhJv2aLIaYrD3EZDi/SqMhJjtETHZABVUclfZ6DTyQsklMcngkwhGTSQ0x2WSyi0m5u8XtW3flktvyt4jRyALVJW+ImFSraBsxWQMxOZpoj1hichIx2QGVVTFtXP4yMCn3vvhu5oGU9WLyrcVbW2sP1FmAEsRkUlP1bzYxOT7mzWNIilG2k04vnV08dlyu9dxT8/5C5zDEpF+TxRCTtYeYDOdXaTTEZIeIyQ6ouIqs0l6v5QdSVo1JDo9EPcRkUkNMNpnUYvLh7pPliytSj3ml4+QQk35NFkNM1h5iMpxfpdEQkx0iJjugEqsTkpS7d/6iLtg00/Z6rRST1167w+GRqIeYTGqIySaTTkzKJbG9a7odYtKvyWKIydpDTIbzqzQaYrJDxGQHVGV1qNKBlFvvf62SMjAm5VwcHokmiMmkhphsMinEZM8y0g0x6ddkMcRk7SEmw/lVGg0x2SFisgOqtTq3uXpPXcJp1F6vM2OSwyNhgphMaojJJtNtTD7cfXJm6XV/Ufo1xKRfk8UQk7WHmAznV2k0xGSHiMkOjForHVUPpLz22h05V3lMblz+ksMjYYKYTGqIySbTYUzubN9fML0uSQ0x6ddkMcRk7SEmw/lVGg0x2SFisgOutRL07qufVPr6kJtT3tKU1Ny98636R6A2YjKpISabTFcxeXvrbu4fsVM+xKRfk8UQk7WHmAznV2k0xGSHiMkOqIRLTaUDKYEIiMmkhphsMp3E5M72/X6XpAwx6ddkMcRk7SEmw/lVGg0x2SFisgMq3hL09ksfhx9ICbSNmExqiMkmEz8m+71362iISb8miyEmaw8xGc6v0miIyQ4Rkx1Q5ZasSgdSAu0hJpMaYrLJxI/Jkyde8evu9RCTfk0WQ0zWHmIynF+l0RCTHSImO6CaLXHs9YrOEZNJDTHZZCLH5FXT7Z6Uh5j0a7IYYrL2EJPh/CqNhpjsEDHZAVVrWdi4/CVJia4Qk0kNMdlkIsfkEHZwdUNM+jVZDDFZe4jJcH6VRkNMdoiY7IDqtFyw1yu6QkwmNcRkk4kZk8N5W1KGmPRrshhisvYQk+H8Ko2GmOwQMdkBFWl5kaTc+eixukZAq4jJpIaYbDIxY3I4b0vKEJN+TRZDTNYeYjKcX6XREJMdIiY7oPIsRxxIiZiIyaSGmGwy0WJSVuRXOYwhJv2aLIaYrD3EZDi/SqMhJjtETHZAhVm+tta+VlcNaEPvY/LIoaPyFyUXe7tP1A1STs7ir6fFEJOBBvIhrqMhJv2aLIaYrD3EZDi/SqMhJjtETHZAJVm+1t/aUVcNaEPvYzJaYHSCmByfaPf1oPZxlSEm/ZoshpisPcRkOL9KoyEmO0RMdkAlWb6IScRBTGaNmByfOPf17Vt3/foGM8SkX5PFEJO1h5gM51dpNMRkh4jJDqgkyxcxiTiIyawRk+MT575evrTi19fCyA2yeOy4bIIL+VWqzS/OaIhJvyaLISZrjzyw1SpaRUyOhpjsEDHZAZVk+SImEYf5dmfDv5fEZCXE5PjEua/bOGDy8OGjyxdXHlY8YrZE4jcsMalW0TZisgZicjTEZIeIyQ6oJMsXMYk4iMmsEZPjE+e+tr3NZc6fe1Otojli0pB5TN6+dVetom3EZA3E5GiIyQ4Rkx1QSZYvYhJx9D4mf7d2Q62iT4jJ8YkTk3Nz8359FnNm6axavgli0pBEhV+TxUhMxn+Fi5isgZgcDTHZIWKyAyrJ8kVMIo7UYnJv94lfkNHED6SYiMnxibCNbvv4lC7d2W5lK42YNGQek/Ff4br67j/51VvMy3//K7X8QsSkGmJyJmJyEjHZAZVk+SImEUdqMSn8goyGmAwfYnIm249yPXnilFq+FWLSkESF4dvREpORf9G+/bPx8zwxWW+IyZmIyUnEZAdUkuWLmEQcvY/J5Usravl9QkyOT4SYlFX4lVlMezc4MWlIosL29nxt6R/UKloll//M0ut+3RYT+CRPTKohJmciJicRkx1QSZYvYhJxJBiTttttkbc/IiMmxydCTK6vbfiVWUx7F5iYNGQeFS/+7BdqFa2yvfz79u0LfIWOmFRDTM5ETE4iJjugkixfxCTiSDAmjxw66pdlMbI1o5bfJ7bbOsTkTLbbOu1tohGThsyjaH7+R2oVrZLL71dsMeHHfBKTaojJmYjJScRkB1SS5YuYRBwJxuTiCz/3y7KYw4eOquX3CTE5PtnFpFq4IdsHBjFpu5to5A90tf0o1/ALT0yqISZnIiYnEZMdUEmWL2IScSQYk7bbbTJ7dt8FnxpicnyIyRFi0pbtp6HKROuKH4ruxCt+rRYjMRn4jEpMqiEmZyImJxGTHVBJli9iEnEkGJPLl1b8sowm5psAkRGT40NMjhCTtv5la9uvzGjm538U50Wuzz+951dpNOH76BKTaojJmYjJScRkB1SS5YuYRBwJxqTtZ5zI9OMvSiHbbR1icibbbZ32csL2gUFMPvzqsV+Z3URIC/O3JWWee/Z5tZZpiEk1xORMxOQkYrIDKsnyRUwijgRjUv5u+WXZTUtfDd85YnJ8sovJ9jbRiElb0hW2HwwmMz//o7afl8zflpQJ/14TYlINMTkTMTmJmOyASrJ8EZOII8GYFIZfEe5m8dhxtYp+ICbHJ7uYDPxUzBqISVvSFebHcsscWHi6vXenpSQXTH+/ZCp9dBAxqYaYnImYnERMdkAlWb6IScSRZkzafqCrm8DvRovpYePtSGJyfCLEpKzCr8xi2tu4JCbN2X4m6mj+2+Fn2nh/so2SlAn/9B1BTKohJmciJicRkx1QSZYvYhJxpBmT5p/B4+bqb2PH0iQJSPl7KdtYc0/Nn1l6Xf20KmJyfCLEpO0+2C1t68ivjzy6/DoshpgUD796bL7HhJsDC0/b9qR0bxslKRN+wKQgJtUQkzMRk5OIyQ6oJMsXMYk40ozJ27fu+sVZT+TNEUcCcn3txumls+qwq+Z/6my3dYjJmfZ2n/iVGY3hZZaH2fLFlTYqgpgU5mmh5uSJU82T8vNP75l/4s5o9u3bV+kpgphUQ0zORExOIiY7oJIsX8Qk4kgzJkVLbwLIyNZ229Ukm/XSw7JlL9tSJb0k11GdsSpicnwixKSwfWTKo7H5UXPyeJPfO9t3I8eHmHRa2tN1fCQp19duyB2qVl1OTi83aautKyMxWSl3iUk1xORMxOQkYrIDKsnyRUwijmRjso2Puxgf2YiX7TbZSq663TZJ/tBKOspfwdNLZxePHa8USA3/SBOT4xMnJs032eWhWO8tKXnwLF9caTshZIhJp709XSdHrpQ8n8j9K20pt788w8jdPSL/Irehe7nK/GNmp02lfVwFMamGmJyJmJxETHZAJVm+iEnEkWxMytaSX2L7I1tjbtNNLrz8MROy9nHuH4WcQMgWkkSjnKt5CzXsN9ttHWIyREsvcwTu5Th62cL2pisf8xtWroJftMVE22T89s/2T5i5TNV9XAUxqSbm5ferNBpiskPEZAdUkuWLmEQc5ttGhn8vbf+QpzkNP4OHmByfODFpu7mjZmH/QblP3esajvy3bJHLP8asRzXE5MjDrx77tQ5sDhx4Wt0UMxGTamJefr9KoyEmO0RMdkAlWb6IScQhf978867RGP69vNrmVnsi0/Cvne22DjEZQrar/PoGM8TkyA+B1Non3CQ7Nd6WFMSkGmJyJmJyEjHZAZVk+SImEUfKMbm3+yTaEUpdTcPP4CEmxydOTIoO3yTsZIjJcZ9/eq/3z0tqarwtKYhJNcTkTMTkJGKyAyrJ8kVMIo6UY1IsX3rHL7e/c/vWXXWtwxGT4xMtJtv+dKjUhpgcN7QjJ+u9LSmISTXE5EzE5CRisgMqyfJFTCKOxGNSLCz0/F2gJglHTI5PtJiUFflVDmOISeXhV497/7w0mpd/+St19QMRk2qIyZmIyUnEZAdUkuWLmEQc6cdk7zfcm3wGDzE5PtFiUgxqR0diclKE75xMYQ4ceLre99YIYlINMTkTMTmJmOyASrJ8EZOII/2YFP3eq/DwoaPq+oYjJscnZkya/+KkPMTkJCmN8+fe9Jegp1N7B1eHmFRDTM5ETE4iJjugkixfxCTiyCIm93af9Hinsrm5ebmC6ioHIibHJ2ZMDuHToUZDTBaS2Fg8dtxfiD5OwydzYlINMTkTMTmJmOyASrJ8EZOII4uYFDvb93u87V77M3iIyfGJGZPC/Hcn2SEmp3n41eMjh476y9Gv+R+/PKWubFXEpBpiciZichIx2QGVZPkiJhFHLjEppLj62pPLl1bUlQ1ETI5P5JgczpuTxGSJzz+917/9Jo4ceeZh3d0lRohJNcTkTMTkJGKyAyrJ8kVMIo6MYlL0tSdlk0td00DE5PhEjkkxhK+ukSEmy0lP9un9yeeefb55SQpiUg0xORMxOYmY7IBKsnwRk4gjr5gU0pP9ex9gYf9BdTUDEZPjEz8mRb+PmnNDTM708KvH/XgkvNbgw6UVYlINMTkTMTmJmOyASrJ8EZOII7uYFDvb9/vXk/U+g4eYHJ9OYjLZT4eSS7W+dsPknXxiMoS0R9af7yoPleVL76gr1QQxqYaYnImYnERMdkAlWb6IScSRY0wK2YI/eeIVv8peTL3tdWJyfDqJSZHaqxtSBVI1bk9Fk0dI7Q+ImqbHm4wfbvwhx5e6jhx55vaW8b1MTKohJmciJicRkx1QSZYvYhJxZBqTztUr1/vxFqU01YfEZOPpKiZFOj15Zuns+AFvJr/g5puS/d5kfLj7OKO3KP/60kMrT9rEpJqYl9+v0miIyQ4Rkx14+6WPVZVliphEHCbbmuMT+e/93u4T2W7L9FN5JKXkwjdJIGJyfDqMSdFtT8qvwOmls3IZ1KWS28SfosEQkzV8/um99PeeOHni1ORjxgoxqYaYnImYnERMduDRg+9vru6qMMsRMYk4co9JR7aHZLstl3cp5S+cNKTJroPE5Ph0G5PCPQ79pYk14zu1Fmr+UgsxWVuaSTntpQdbxKQaYnImYnISMdmZvS++kxhTeZYXYhJx9CMmR65euW77599qpJpk603+Upp85v4IMTk+ncekE23va7n319duzHxELb7wc3+GukNMNiTZlsg++XJblb/0YIiYVENMzkRMTiImO7b94Tf57vVKTCKOnsWkI5tuyxdXbLcDqs7c3LxcgDYCcpztdSQmDbUXD3Kny8M7/EG1fGnFn7PuEJNWbt+6K88J8b+UUm6ihnvU10BMqiEmZyImJxGTSfjX3/8px6QkJhGHbJLK3wlDcV7zDiQXZn3thmy9yR+V5jv7lY900eKx464e5XZQl6Qltndf/PtOXYCGknrsOZKUJl8/KPkhD62Q9yELqRuqKrW05mwft0ItP3072/dHT03+Pjad0YtZtR8zJmzv6PhXJN/Lr1bdkFp4e2xvcKGWnyNiMhU57vVKTALmbt+6u/nB1vLFFdnGkk182diq9M6YbJ/J6WWzXs578penzp+7IN0o22r9+IuF9sgWkjzw5AEjD7mZ70q5h5l7YUIeq/Kgjb8NjcjkXpZnEnmEyBOLe5CEPzWNPynJA4ZnJKBPiMm0SFK+98ZnqtmSRUwCMZW/IMrWPGzJg8q9tDHCIw2F3AOjkDolgP4hJlOUy16vxCQAAAAwWMRkum6u7iaelMQkAAAAMFjEZNISP5CSmAQAAAAGi5jMgCRlmm9REpMAAADAYBGT2UjwQEpiEgAAABgsYjInjx58f3N1VxVdh4hJAAAAYLCIyfykcyAlMQkAAAAMFjGZqz9+9LjzvV6JSQAAAGCwiMm8dXsgJTEJAAAADBYxmb29L77buPylyrw4iEkAAABgsIjJnujkQEpiEgAAABgsYrJXIu/1SkwCAAAAg0VM9tDN1d04SUlMAgAAAINFTPZTnL1eiUkAAABgsIjJPpOkfPfVT1QBGiImAQAAgMEiJvuvvQMpiUkAAABgsIjJobi5uqtSsDliEgAAABgsYnJAzA+kJCYBAACAwSImB2f3zrdWe70SkwAAAMBgEZMDZXIgJTEJAAAADBYxOVx7X3y3cflL1YeVEJMAAADAYBGTQ9fkQEpiEgAAABgsYhI/qLfXKzEJAAAADBYxif+y9f7XlZKSmAQAAAAGi5jE36i01ysxCQAAAAwWMYkCkpTvvvqJSsdJxCQAAAAwWMQkppp5ICUxCQAAAAwWMYkZbq7uqoYcISYBAACAwSImMdu0AymJSQAAAGCwiEmE2r3zrdrrlZgEAAAABouYRDXjB1ISkwAAAMBgEZOobO+L79yBlMQkAAAAMFjEJGqSpNze/Eb9IwAAAICBICYBAAAAAJURkwAAAACAyohJAAAAAEBlxCQAAAAAoDJiEgAAAABQGTEJAAAAAKiMmAQAAAAAVEZMAgAAAAAqIyYBAAAAAJURkwAAAACAyohJAAAAAEBlxCQAAAAAoDJiEgAAAABQGTEJAAAAAKiMmAQAAAAAVEZMAgAAAAAqIyYBAAAAAJURkwAAAACAyohJAAAAAEBlxCQAAAAAoDJiEgAAAABQGTEJAAAAAKiMmAQAAAAAVEZMAgAAAAAqIyYBAAAAAJURkwAAAACAyohJAAAAAEBlxCQAAAAAoDJiEgAAAABQGTEJAAAAAKiMmAQAAAAAVEZMAgAAAAAqIyYBAAAAAJURkwAAAACAyohJAAAAAEBlxCQAAAAAoDJiEgAAAABQGTEJAAAAAKiMmAQAAAAAVPToP/4/HwbxiR/GmZ4AAAAASUVORK5CYII=;" vertex="1" parent="1">
          <mxGeometry x="325" y="67" width="199.03" height="54" as="geometry" />
        </mxCell>
        <mxCell id="Z946En1CuJWLNQMD-FcK-50" value="" style="shape=image;verticalLabelPosition=bottom;labelBackgroundColor=default;verticalAlign=top;aspect=fixed;imageAspect=0;image=data:image/png,iVBORw0KGgoAAAANSUhEUgAABMQAAAFLCAIAAAC2jMcHAAAAAXNSR0IArs4c6QAAAARnQU1BAACxjwv8YQUAAAAJcEhZcwAADsMAAA7DAcdvqGQAAEG4SURBVHhe7d1PbxzXmajx0RcwmQ8gSt5LuvI6jhHfnRUaUVZWRr6w4g0ByYA8GxlXd2HFkYChIcCEFYDSZmRzccNFMKI3phYXoQx4NF7IFAyYMTwwJcgjZuEIEhBfwAsDd+7rnDM9nberq09VvXXqnKrnxQ+BI3ZX9T826+mu6v67//voPwAAAAAAqISYBAAAAABURkwCAAAAACojJgEAAAAAlRGTAAAAAIDKiEkAAAAAQGXEJAAAAACgMmISAAAAAFAZMQkAAAAAqIyYBAAAAABURkwCAAAAACojJgEAAAAAlRGTAAAAAIDKiEkAAAAAQGXEJAAAAACgMmISAAAAAFAZMQkAAAAAqIyYBAAAAABURkwCAAAAACojJgEAAAAAlRGTAAAAAIDKiEkAAAAAQGXEJAAAAACgMmISAAAAAFAZMQkAAAAAqIyYBAAAAABURkwCAAAAACojJgEAAAAAlRGTAAAAAIDKiEkAoXa271+7cn2avd0n6vQhNje21HJGNj/YUifuk7mn5n/y458uHjt+/tyF9bUbt2/dfVjrBgynbt5x9e47IZd55+59ufxqgUL+Ue7BCNcLAAB0hZgEEEra4O+mj0SFOn2Ik7885c8/MdJa6sR94q/k386B/QflWtdOu3J+HUVT6b6TOJRWlDtOLq0//6wZlfPyxRV5FJGXAAD0AzEJIBQxachfyaKpd0vO5JdeNIFr3Nm+f3rprJShP1uDuXrlPbVwAACQHWISQChi0pC/kkWTZkyeP3fBn9pi5LGklg8AALJDTAIIRUwa8leyaFKLyYe7Tw4fOupPajS3b91VawEAANkhJgGEIiYN+StZNKnFpHlJyqhVAACAHPEXHUAoYtKQv5JFk1RMnll63Z/IbqRO1VoAAECOiEkAoYhJQ/5KFk06Mbmzfd+fwnT6fc8CADAcxCSAUMSkIX8liyadmDx54hV/illzYP/BI4eOyl02Iv8yN1f8ua9nll5XKwIAADkiJgGEIiYN+StZNC3FpCx2GnXKEX+Bpo/cR9euXC//3kj5qTxy1tduLF9cOb10Vs4i/6FOAwAAckRMAghFTBryV7Jo6t2S5srvbpnz595UZwEAAINCTAIIRUwa8leyaBKJyeVLK/4CFc3JE6fU6QEAwNAQkwBCEZOG/JUsmkRisvxzXOXBoE4PAACGhpgEECrNmHy4+0RWvb5249qV68sXV86fuzBO/lF+ZPUV+bIcWaAs9vTSWbnk4+Rf3OrkVgpZnb+SRTPtlpRrqi6A/MfVK+/tbLcSn7J8f4GKRp24PZPX2pH/K3e34Z1bTu5WWZf6x6rknpUrMv4olf+WJZcfdAoAQLKISQChEolJ94EushW+eOz4gf0H/akDRhYo56qRXrI6uZxzTxV/Num0OXLo6MkTp/amdII/UdGM35JyZSU/ZO3l11RWNPN6yRKmKbzvSu6aCF8UKVdc7iy5y0Ju9oX9B+UWCI89ub7qFnBOT3zMrFwMST65K2UthddaLqFaiJAHzPhpQh4/cvnjVDEAAIZSjMn1X+/s/fE79Y8AOpdITE77wonwkWaY1niKFJpcDH+2WqMWOOJ/XDTulpRbu9KqJajKe9KfrmiqxuS0u8aE67eq6e5GboSrV95TC5wk19ef4W9nPBcnL4YsfPTTEUlH/+Oxcd99UuOKTNYsAAApSzEm/9d//z9ic/Xeowffqx8B6FAiMeneJmo4M9NLyAnkZP4MtUa6Vy1zxJ+iaCRF6qWU3DJqLeP8iYomnZhsfpvLzHyxYFpMuvurJALHF+IUxqQsR35Z6l2RVkMdAABb6cakePulj2///k/qpwC6kkhMlpyl0si2fnlyNK+akt1B/Smsp+R9OX+KokkkJk1K0o10dcmdOy0mZa7+9r2SyzB5QxXGZMPh/UkAQC6SjslRUrLXK5CCRGKy/CsrKs35cxfUwkeuXrnuT9RgSqLLn8J66q0xhZg0LEk3JV9eUhKT5TN5WGMbMSnD8ZMAgCxkEJMOB1ICnUskJtfXNvwpGs/c3Py0969k7f5EDUaunVrsiD9FCzPtGvkfF00KMXnyxCt+6XYjj1i1Fqd2TE6+8dtSTLqjLgEASFw2MSl+8+KtzdV76sQAoimPSfmpbKNXtfjCz/35J2Zasci5/Cn+c2SDXsjphSSQcP8d8lE90/YLLT+vW9H5//yCB/eVFfKPRw4dHT9jyTuf/hQtzLQ3tfyPi0ZuUnViETMmd7aD6k7uZbmFZe2BCTdtN+PJh1DgLF9aUYuqFJPy2HCP1ZmPTDmBWhEAAAnKKSYdDqQEulIek+ZTUizSOct//Y7BwgoaJ5VS/paXLEqdReztPvE/LprlS++o0ysP//rViOVfgeiXVWUkMFSsFs60PPY/LprOY/LM0ut+0UUjV/n8uTflVlXnkgfkzPczC9+crBeTcq0nlxYSk3KvyeVXDwZ5ZMoC/SmKhj1dAQDpyy8mnfff+Iy9XoHI0onJqkpapfDNq5LYsHrLyC9u1kirnF46q7JZatb/uGhyjEnJLb/oiVlYmPG5u+W3RuH+olVjsjAjnfKYlAs/7Yxib/eJnMCfdGJKPksJAIBE5BqTDgdSAjHlG5Ml7zQWxmHJNV0o+rLBGvzipoxcKmnIkg4peVMru5gsfx84pKlK3p+s+mKBmpKMdEpi8szS2cl3U5Xz5y74U09MyT7SAAAkIu+YFOz1CkSTb0yKko1+dUpREhsRYjIkQkpKL7uYLEv3haBbu2QJhS8WhMRk+ZuKIyWPq8JbVbk2/UOD5fZXJwYAIDXZx6QjSbm9+Y1aDgBbxKSb8r0uA/llFU1IhPQpJks+njdwReXvbcpP1enL799ph2gWahiTJb9TxCQAIH09iUmHvV6BVg0nJsvjZGH/webHs/llFc3QYtLk3Tl/hqKZvHblMVnpxQJiEgAwZL2KSWdz9d6jB9+rZQJobjgxKeZmfnnDU/OLx44vX1yp96mbfilFQ0yOppOYVCcuR0wCAIashzEpOJASaEN5TLovAKyq5NMs5afqAjRRNSZLUmpyFvYfPHni1PrajcB9I4U/Z9EQk6MhJgEASFk/Y9KRpGSvV8BQeUyGbDpPalgsEm+3b92VGjl/7sLppbOytGlK3mlUy3Rqvw0rVSnnVUub5E9dNCG3pFwjf+qJISbVTF47+Rf/s6JRJy5HTAIAhqzPMelwICVgJamY3Nm+L/U499SMnVFDRi15pPyb9MtnYf+Mb0f0pyuakFuSmFT8GYpm8trJv/ifFY06cTliEgAwZP2PSfGbF29trt5TawFQVToxuXxpxZ/IYtTCx50/96Y/Ua25+tvirhP+FEUTcksSk4o/Q9FMXjv5F/+zolEnLkdMAgCGbBAx6XAgJdBQIjFpW5IyavnKzvb9ku/EL5+5ufnJ76Vw/CmKJuSWJCYVf4aimbx28i/+Z0WjTlyOmAQADNmAYtK59tqn7PUK1JNCTEraLUzffK83ahWFZL1Xr1yXi+TPEzznz11Qi3L8j4sm5JYkJhV/hqKZvHbyL/5nRaNOXI6YBAAM2eBi0uFASqCGFGJSis7/2G7UKmaS22H54kpgWE7rLv/jogm5JYlJxZ+haCavnfyL/1nRqBOXay8mbW9kAADaMNCYFG+/9PHW2tdq1QBKpBCT5Ql35NDRxWPHZZmT/CmKRq2ikvW1G+UXaWH/QXUWx/+4aEJuyZJrFCEmp12peojJwiEmAQDpG25MOhxICYRLISZLvuFDLp468cje7hN/oqJRJ66h/HNf1Ykd/7OiCbklu41JuRfUiZsgJguHmAQApG/oMemw1ysQovOYLGnCxWPH1YnHGcZDoRrL9z8rmpBbMkJMlhdySbpXtb624Rc6MeV360j5iwWTn4Fk+HggJgEAQ0ZM/pfN1XskJVCi85gsaYBpn3PjGMbDNH5ZRaNO6fifFU3ILRkhJss/NdcwdW7fuusXOjGBb4GWPDILl2D4eGgYkyXvygaGNAAAHSIm/wZ7vQIliMkSfllFo07p+J8VTcgtGSEmy+9umfLbPFz5+4rTrs64ku9uKYxew8dDw5gsueRyF6sTAwCQGmKygCTl7p2/qEsFIOWYLN/yrhEPD6d8P2ShkvfWZNSJHf+zogmKkPZjUpQcoepmYf/B5YsrcvXVGUdkyfLT9bUbcrLTS2cXjx2X+pqsULmv/RInRi7DznbZDSJL8yctmjNLr6vTixqPh2maxGT599xYtToAAO0hJqfiQEpA6TwmxbS8kX+fPDROSBNKxpR/NaU6i7O+tiHnkviRs8sVL2lL+dHiC8f9sibm8KGj6vSO/3HRhNyScWKy/LBJNZJV4/y/Fs1k+ZcHoczJE6dUssrNLvdLSYW6KQzdODEpl0362T1+Jm9h+cfyh6WcQJ0FAIDUEJMzbK7eUxcPGCzZuvXbuUUTJyaPHDrqfzwxsmkuHSUXUly7cl024mUJc0/NeG9NRq3CmewoWZSsXZYphSkX25H/Ll9F4bUQ/sdFk05M7mzfn/nmZI2ZvE32dp8ErsiVasjdKjOt5OPEZOG4y+//T+kUvjgCAEBSiMnZOJAScFKIyUrvlQWOWoUja/c/bjbLl1bUkh3/46JJJybF8qV3/InsRrJfrUXMfHOyxqyv3VBrcTqMycA5eYIDJgEAGSAmQ7376ifs9YqBSyEmyy9DvVGrcKzekZt2vJ//cdEkFZPi5ekfElN71CrE3u6ThQXLMDt/7k21ipH0Y7L8MFEAABJBTFbDgZQYshRiUli9ZzgatXwhm/L+Z82m5P0lf4qiSS0mhfkbwoVr/OEDaYx6UgJYLXxc4jFZksEAACSFmKzs7Zc+3lr7Wl1mYAgSicl6yVGSoGr5ouRr9MPn8OGjJR/b409UNAnGpLh65brhO4e/m7YDqkVPnlk6qxarpByT5RkMAEBSiMmaOJASA5RITIpKySHLkUsu55rWk+NLdiR1Sj7pJ2SkZ0pKUvjTFU2aMSnkZl++9E7z2Jubm58Wk07tcB3d1+WSjUm5edXyAQBIGTHZCHu9YlBu37orm87T1IvJM0uvq+WMLB47rk48bm/3iZy3JDlkCaeXzo6nhWypjy9/ZHQCRdppfe2GLEQSJfAQSjmZWuk06jKMC7klS263aZ2mTjau6n0nV/D8uQuBN4ucRlYh96bcMteuXC/5UkpFkvKHD8sNWIUsP/Bmd+T6jq77JHXicnJ6fyEmZvGF4+E3kVx+ebyphQMAkDhi0sDG5S9JSqArkhDLF1ekbWRzXP5X/lsKsPxdwXrcFxu679+XFY3WKKSR5N/r5XTu5GaRPpRbxt04clO4/5Z/lBvE5I5wy5clF97sbdzX4UpicvR4GD1yRlfBkQeS/MswHzYAgH4gJm2w1ysADFBITAIA0FfEpCVJyt07f1FXBwDQV8QkAGDIiEl7HEgJAANBTAIAhoyYbMvm6j11vQAAPUNMAgCGjJhs0fpbO+qqAQD6hJgEAAwZMdkiYhIA+o2YBAAMGTHZImISAPqNmAQADBkx2SJiEgD6jZgEAAwZMdmiaTHJZ73mgnsKQDliEgAwZMRki6bF5G9evMVnvSbu0YPv13+9c+21T9W/A8A4YhIAMGTEZIumxaT76dsvfXz7939SP0LnJCMl9d9avCX3ETEJoBwxCQAYMmKyReUx6UiusC9lOnY+eiyRP37vqBMAwDhiEgAwZMRki0Ji0ln/9Q5J2a3dO99KOqr7hZgEUK4wJufm5o8cOrq3+0SdGACAniEmWxQek4K9Xrvy6MH3G5f/Td0dDjEJoJzEpFg8dvz00tlrV66vr93gDUkAwHAQky2qFJOOJOX25jfq9GjP1vtfu8MjCxGTAAAAwDTEZItqxKTDXq8R7Hz0+N1XP1G3vEJMAgAAANMQky2qHZPO5uo9krINcqtOHh5ZiJgEAAAApiEmW9QwJgUHUtoa/9qPEMQkAAAAMA0x2aLmMelIUu7e+YtaCKqSLA/PSIeYBAAAAKYhJltkFZMOB1LWtvPR48D9WhViEgAAAJiGmGyRbUw6m6v31NJQQvJbIlzdhuGISQAAAGAaYrJFbcSk4EDKEFUPjyxETAIAAADTEJMtaikmHekc9nqdZuejx5Lc6hargZgEAAAApiEmW9RqTDocSKnUPjyyEDEJAAAATENMtihCTIq3X/p4a+1rtYoBevTg+43L/6ZunIaISQAAAGAaYrJFcWLSGfiBlFvvf93w8MhCxCQAwMTO3fu3b93d/GDr2pXrheRHQk7zcPeJOi8AJIuYbFHMmHQGuNer1eGRhYhJAEANko7Sh6eXzi4eO35g/8G/qz5yrp/8+Kdy9vPnLqyv3ZDIVKsAgBQQky2KH5POxuUvh5CUch0ND48sREwCAMJtfrAlAVmvHkNG8lKWL225s31frRoAOkFMtqirmBT93uvVfe2HusptICYBADM93H1y/tyFuafmffNFmYX9B0+eOEVVAugWMdmiDmPSkaTcvfMXtfbctXR4ZCFiEgBQopOMHM2+ffs2P9hSFwkAYiImW9R5TDq9OZDS9ms/QhCTAIBpli+tdJWRbiQm9/i0HgCdIiZblEhMOpur99TFyIjE8PtvfKauUQTEJABg0s72/Z/8+Kc+6bqb+fkfqQsGAJERky1KKiZFjgdSusMjo+3XqhCTAADl9tbdhdY+YqfSPPfs8+qyAUBkxGSLUotJ591XP8llr9ftzW/a+9qPEMQkAGCclGS3u7aOz4s/+4W6eAAQGTHZojRj0kn8QMr4h0cWIiaVzQ+2Duw/iNp+t3ZD3aQAMpJUScqcP3dBXUIAiIyYbFHKMSnefunjrbWv1WXr3KMH329c/jd1UbtCTCoSk34Thqk1V6+8p25SALnY2b6fyN6tbvbt28frUwA6R0y2KPGYdJI6kLLDwyMLEZMKMdlwiEkgX0mVpAzfCwIgBcRki7KISafzvV53Pnrc7eGRhYhJhZhsOMQkkKnz5y74X+Nkhu8FAZACYrJFGcWks3H5y/hJKWtM4fDIQsSkQkw2HGISyNHO9n3/O5zS8L0gAFJATLYou5gUMfd6TerwyELEpEJMNhxiEsjRyROv+N/hlObI4WfU5QSA+IjJFuUYk44k5c5Hj9XFtrX1/tdJHR5ZiJhUiMmGQ0wC2UnzbUkZvhcEQAqIyRblG5NOSwdSJvK1HyGISYWYbDjEJJCdNN+WlOF7QQCkgJhsUe4x6Wyu3lOXv7aUD48sREwqxGTDISaB7KT2Ia5u9u3bx/MJgBSkGJM3V3fVNn2m+hGTovmBlI8efJ/a136EICYVYrLhsPEH5CXZJz2+FwRAIlKMSbH3xXdSYmrLPju9iUlHkrLeXq8Sogl+7UcIYlIhJhsOMQnkJdl9XPleEACJSDQmne0Pv8k0QpyexaRT6UDKjA6PLERMKsRkwyEmgbykuY+rDN8LAiARScek86/Zvq/Vy5gUcnfMPJDy0YPvJTvVGbNDTCrEZMMhJoGMJPs5rjJ8LwiARGQQkyLTvV77GpOOJOX25jfqqjk5Hh5ZiJhUiMmGQ0wCGVlf2/C/ui3MT37809NLZ69duX771t2du/cf/nWfVflf+W8hT7ZCfnr+3AU5mZz4yKGj/px/Hb4XBEAi8ohJR5LyvTc+U5v7Ket3TIreX0FiUiEmGw4xCWTkzNLr/lfXdKQM5blUrSuQlOf62g3Jy+WLK+pHANCJnGLSyWivV2Iyd8SkQkw2HGISyIhUn//VtZvz595UawGArOUXk87N1d30d6QkJnNHTCrEZMMhJoGMqD1Lm8/JE6fUKgAgd7nGpEj/QEpiMnfEpEJMNhxiEsiI/701moWFgzvb99UqACB3GcekI0mZ7F6vxGTuiEmFmGw4xCSQi73dJ/731mh4WxJAL2Ufk06aB1ISk7kjJhVisuEQk0Audu4afy+IPH+qVQBAD/QkJsWjB9/fXN1VMdAtYjJ3xKRCTDYcYhLIhfnT3d5fv/wDAHqmPzHpJHUgJTGZO2JSISYbDjEJ5ML26W5ubl4tHwD6oW8x6Wx/+E0Ke70Sk7kjJhVisuEQk0AubJ/uDh86qpYPAP3Qz5h0Oj+QkpjMHTGpEJMNh5gEcmH7dPeTH/9ULR8A+qHPMSm63euVmMwdMZmI8+cu+C0yo5EFqlUAwLhrV6775wuLISYB9FXPY9KRpHzvjc9UJ0RATOaOmEwEMQkgMmISAEIMIiad+Hu9EpO5IyYTQUwCiIyYBIAQA4pJ5+bqbrSkJCZzR0wmgpgEEBkxCQAhBheTItqBlMRk7ojJRBCTACIjJgEgxBBj0pGkbPstSmIyd8RkIohJAJERkwAQYrgx6bR6ICUxmTtiMhHEJIDIiEkACDH0mBSPHnx/c3VXVYQJYjJ3xGQiiEkAkRGTABCCmPTaOJCSmMwdMZkIYhJAZMQkAIQgJv/GHz96bLjXKzGZO2IyEcQkgMiISQAIQUwWsDqQkpjMHTGZCGISQGTEJACEICaL7X3x3cblL1VaVEVM5o6YTAQxCSAyYhIAQhCTZRoeSElM5o6YTMRgY3Ln7v3bt+6ur92Q7drliytysQvJj+QEmx9sCTmLWggKuZtL/WNG5MLLY0P9Y3se7j5xj0ZZrzzYyh+QjntYyqPXXVRZglpm4uTC++cLi+lZTAY+NQn3aMn0MdAhuYXl5lX/2AMljxz5v/Lv8lN1lkTIJR89+41fbDF6hKuzDAcxOVvtvV6JydwRk4mQJ2u/RWY0skC1ihS4rYfTS2cXjx0/sP/g3FPz/uJWnyOHjspC5GrKAtmAGye3htws7rY9s/S6+mn6ZJNFHiHu8l+98p76aXPuQSjbRrKWk788JQnU8KE4PrIceWTKMmXhcuHluqi1J0VuBH+5LSbrmJStZPeQcE9N/irVGvcYGD077Wzz4tffkCcoaSp5tMhtdeTwM+qneXFPJnJ1ajxy3LNEV3kml9wVozwHysM1/JLLw1suuTy5De2BTUyGurm6WzUpicncEZOJkOd0/1RtNLJAtYquyKaD/NGSv1gNN9HKR/4cnjxxqqttdxcnTZj8YZar7zbRRiM3uzpNoeaXf69xz49vYo6m+cNYFuu29tw2k1U0Vhq31RjhwanulJlOnnjFX0SLWVg4qJbfUPMHVTm5R+QBJvdO24+Khf0HpTQ63P7e3PBvN9Vm9QQlt8P4rX1g4Wl1mkJNnqBsb3P3fCK/zoYPG3l4tPGqmSLVav40KPdmV39z4yMmK6i61ysxmTtiMhH9i8nCNogw8oc5flU2v5rLl1bUMsPJTS13d+H2weFDR9WJCzXv/N812F1NtvZk46zw8gfG8Di5NeTel8de1TcKIoxcR7lUsjGqLrMVv5pezL59+1r6LZbFTnu8RRjZlJcHZ8yq/PbP/09+j/zq685rS/+gFhvO/S2QK+6XNTZyL6sTT5LL3+QJ1uQFKYlSuQ1bfT5pIyldQLb9con8we3qVZKYiMnKJCnfffUTVR2FiMncEZOJ6FNMlrRBzInzcq/TPCZrVJOQzeKTJ14puanlRlBnKdR8I6leDMvlL7/pJL3UWQq5gHRvF/hzpj3uJQ/zLTC/9F6MZMaO6dHR/z79NZdORh6rcZ6gTGLyxZ/9Qi02xMzbPORebhiTzz37vFpgIPeUEvkFqdOND0wYpW/Mh/rc3HyT10OzQEzWFHIgJTGZO2IyEf2ISdk4tt1xrvnEScrmDSNLUMssNzPDRqPOWKj5BlPVgzMDL3/IO6sSnP7UGY5tUvqF9mIMYzK1jByfCE9QJjEZuD/qyOef3gv5WyD38syDBhvGpKwifH9p97JU5BJTc+TQ0Ro7eLu3f5v/JWoynWx1RENMNnJzdVflxzhiMnfEZCJyj0n5SyY54ded3khvtLofTvM/4YFvIYrwjHQTskXePCYD30IUlS5/yM1SuPtcRiPX0epFfb/EXow0gLp2NaSckePTalKaxOT8/I/UYqcJzEg3ci/P3EO+eUyG/H7J81IKO9S4Ce9J+cu7vnaj24Ycnx73JDHZVMmBlMRk7ojJRGQdk/JnWDaG/IoTnvb2wzH5Wz5z66FqRroJ+bTA5jEZUn31Lr9ayKTmG8opjGw+Nn+9wy+rFxNeL9P87/f/OYvnpdE89+zzbbzmZRKTkmQzX5aqlJFuZLEzK7phTMqU7Oma7MsNcpXVRVWSqt/x6WtPEpM2du98O7nXKzGZO2IyEfnGZMpvSE7O6aXX2/iISJOYLKm+JvsPh3w0jslxQWqZ4+plpJuZm7DLl1b8STMfKZ+Q8i/hF9SLqbpf5bh//+rxyyeyfIkh8G20SqxisuSZpEmSzfxT1Twm5+d/NPm0/2GDJ6U4M+2RkNRbkYUjT/jqMvcAMWlJHUhJTOaOmExEjjEphXM4wz0MTd4CUkz+tBe+Qv+w8QvnIdumJjFZWH1y+RseRjuzr9bXNvxJezFXf1t/d0e/iF5M7c9N+fzTe3m9ITk5L//yV4aveVnFZOEzybd//uGPV5MnqJf//ldqmUrzmJQLP8qbFI4tDJ/xP1XN/xZEG/kFbONF224Rk8b2vvhu4/KXLkWIydwRk4nILiblj1y+W2xyyW170mTTZPIu+93ajeY3csgjwSQmJ9+4MNn0mbkXnESsP2lfpnZP+vP3YurF5Icbf8hia3vmHFh42uo5yiQmZSa/HURu7eZPUDM/J7Z5TMqcWXo9lwNox0euuNwCGWXkaEL+7uSFmGyFO5CSmMwdMZkIeeb1z8FG0+pTedYl6UYuv+FLpyYxKRt8owXKLWz12vn4YqcxicnxNy42P9iyetc65J1Vf9K+zNzcfL39Xf35ezE1voti9cp1f+ZejFVPWsXk+D3y+af3Fl+w+RTlI4efGS22kElMyu9Upq8ynDzR5UfL1h65wXv25iQx2aLdO9+qf3FUseSLmEQcGcVkD0rSjXvR14RJ+I2+BkPyyXDrIeRqmsSk+3aQh9af6+sWW87k8ic19V7s8Gfuxczc+1HpWUm6MelJq5gcHcX6jxffMXyCmnlwrElMMvGnZ29OEpMdUMWSL2ISceQSk5IK/ShJN82/Idox2db54f2orbvmh6HK/aUu7SSTGFs8dnyzhc/1DXln1WRbObUJ/7aVEX/OXkylZ7B/+cO2P1vvRlqr4Ts8VjG5b9++zz+9Z951slh1gRViMtPp2ZuTxGQHVLHki5hEHLnEZF6f3RoyJp87l/K2jvxFV5d2Usrv7Mltqy7tJPNfn0Sm6oPTn60XE/4M1oNP3CmfGnv8jrOKSZk29reUmCz/xGZiMt8JOUghF8RkB1Sx5IuYRBxZxOTVPu5IVm9/QiXxbZ2ZVzDlmAx5Z/VaHx+ZMiHXfZw/W/4jgRH4Jf5SGv0uSRm5NZpslBvGZBsj1678CGFiMt8JeSkwF8RkB1Sx5IuYRBzpx2RvDpWcnOa3VeLbOjO/qjHxYw7VpZ0kG6P+pL2bwKZy/HnyHwmMkO9Hdd9L4c/T65lZXCXSj8ny+5qYzHf6tKcrMdmBvS++e++Nz1S35KjfMblx+ctHD75XVw2dSD8mG35bYMrT/A9e4ts6M7fLE4/JmfeOnMCftHdT6c1Jf578RwIjZBffzz+9588wgKn9xZvpx2T5KybEZNZjciBJCojJzvzr7//09ksfq4DJS19j8tprd6Z9Ei86kXhM7mz37av81DS8uRLf1pn57lbiMRnynkziV6HJhG+N+TPkPyFvxEljLB6z+XaKLEZuk3o7uyYekzLlT7/EZNYT8nHcWSAmO3ZzdTffpOxfTMp98cePHqurg84lHpM9flvSTcM3JxPf1pn5YEi8xEL2eFx84ef+1L0bKQF1ZafxZ8h/JJxm7pu9+u4/+VMPZubnf1TjaSr9mCz/GhhiMuuR+07doZkiJru398V3UmWqarLQp5h8a/GWhD37taYp5Zjs/duSbprcYolv68yskcRjMuS4wf59zvBowl/p8GfIfyQm1VVTJDB6/7k7hVPjaSr9mCz/uFpiMusJ+TjxLBCTqZCkzO4tyt7EpFwRMjJlKcdkJ29LSt448qfI/1PL0+RvXuLbOjO/sTDxmAx5MPf1A13dBO7p6k+d/8yMyQ83/uBPOrCp8eZk+jF55PAz6jKPIyZzn5l7GWSBmExLXgdS9iAmr712h/1a05dsTMb5aBPZVji9dHZ97Yb81XlYtKl0+9Zd2Z6WK9XqVkXtjwpIfFvn8KGj6gIricdkyH6eVT/QVa7ykUNHJbNl4fK4Wr64Ijkq5DEgZGnyUJzkfionk7PII1bu9zgvdgQed+RPnf8cWHhaXbVxUhfx92qWO1oeM3KPj4v5apcbyexKH/Ar0o/JmXe33NT+pEyGE3KcQvqIyeQ8evD9zdVd1Txpyjom31q8JemuLjnSlGxMtvrdkrIddv7cm4X1WGJn+/6ZpbMLC/b9U/ujAhLf1pn5pmviMTnznVUx7VUPue4Sja4YJQJdJarzNiTLlLBs4wE5mpkvBziuh8PZ7nQgt7Nafm3rpVufcT7EVR458rCRCyP3b/lzlPx084Ot5Ysr8kCN0JZVP9Y1/ZgsfyOamMx9qr78kSZiMlFZHEiZaUxyeGR2ko3J9v6KSxBWzchxkpTmn+VY9TviRxLf1pGLpy6wknJMytb5/zz3prrAhdy1kP+VTWfZsndvdKvTtOrqlevtJWWNT16ZSUrJL91iZj7MrLT90TtyRSQO1UrDycOg1ScESa9KD4b0Y1LyuOQaEZO5j9XWSLeIyQ5sb36j/mWaP370OOW9XnOMyWuv3ZFQVxcYiUszJlvax1XywGq/l/Pn3vQLNZp6+ZHmts4Pb62cOCXVrS7tpDRjUi5/pTeu5Zo2eXnChPzKmL/G4aZJ3kyTY0xKWhw5dNSv0noaZuS4373/zy29siAxWek7QlKOSXmCmnmDpxyT8swpl81p72HZxsizq1zgOJdcHn7qPs0RMdkBSZr1X+/s/TE0aZI9kDKvmHz31U84PDJTacbk+tqGX5zdyN+w21uzvzYwnO3HeNb7Jjf5e+zPn8ZUzbDUYrLq5U9NGz1Z75FZLseYbG8fV/P3Tx7uPm7pQ4Yr7emaYEzKL/jppbMhr3OJpGJSuksuufziTHvZUdo4wW/ScunoLnnhbtvyL+3tWEFMoqZR3myu3gvc2XLvi+82Ln85OmMiconJtxZvba09UBcSGUkzJtv4o7h86R21lob2dp8Y/gms92cvnW2dehmWTkzmnpGOPCblivirZDS1D+gtkWNMtrSPq3lJOhJC8nj267CbSnu6JhWTNX7BO49JucySYetrN8IvtoSZ+TNA1ZELILfb8sUV6dvwS97GwzXOM0PbiMkOjHfO2y99fDv4Y2BSO5Ayi5iUCOfwyNylGZPme7+cPNHKK5SGnxJU77DJFGKyxlbaSAox2eTyJ8j8NzrkU4iqyi4mpSva+BzXlkrS+eEyW79TLTEZvjtuOjFZ7zj5rmLSNWTt3Z6XL73jFxR35GLL3V0pIBXzW5uYRE2qdoQkZY57vSYekxwe2RsJxmQbB0wG7tdUg/wF9etoPOEv+Y90HpMNP82o25jsWUY65m9O1v50qBI5xqTcDn59RnPgQNn3Uph4+NVj2weDzGtL/6DWMk0KMRl48HahyDE5ijF1MWqIfLFldU0ackTuKb9Qo4nwzBABMdkB1TwjlQ6kvLm623lSJhuTcstweGSfJBiT8mfJL8toWnpb0jG8AW/fqnxIZ8yNBjVNttJGuorJXmbkiO17aHJbqeU3l11MSpX5lRlNpbf4mjDfO/fFn/1CrWKabmPyuWefb3iQfLSYlLUsX1wxfDpavrTiF93mLCwcNH8Wtb3BIzwzREBMdkCVz7jfvHhrc/WeOv00ne/1mmBM8rUfvZRgTNpuaMq0+s3Fhulb40ux4mzrqJGVWm0HdxKTJhmcMvNNSbX85rKLyQ83/uBXZjRVv7OxNiki2zcny7/of1xXMWn1BBUhJg2fS8fdvnXXr6CdaeliC9sPjorwzBABMdkB1T+Tqh5I+e6rn6glxJFaTMrlISN7KcGYNL9INXYfDWe4U26Nm67tbR01CwsHbbchIsdke9tASTH/MGTzr83MLib/8aLlcWj79u2L9nXq3/7Z+Bk1/DN44sekPEEZ3rDtxWTbe0YY/lVS0/ZTaHbPDBEQkx1QCTTNtdc+TfxAynRi8tprd9ivtccSjEnbnfQi/DmxKiLZ8FJLnqmlbZ3JcVs/au3NRYtJ2cps9Q3qpEj7+attNAOPSYkK2zdMpMdivjf+L1vbfsUWIxc+cIf8mDHZRp61EZNtZ+SIX5/dyE0R4ZU4YnISMdkBFULlqh5Iqc7eqhRiUhJaQlpdAPRMgjFp+/e7jS82UKzqt8bHZppv6xROw0/ZKREhJqNtvaXD/H0JYtL2Fa4jh59Rq2iVXH75LfDrbjzhb6tGi8kXj/2ijTg3j0m5nNGeiPwqjSbaG+nE5CRisgMqh2aquterNJ5aQku6jUkOjxyOBGPSNjCaX56ZrDaYDh86qpY8U9sxKctv9dXotmNSLn+/D4+cxl9/ozF/DGQXk7a/aC//8ldqFa2yjWGJyeVLK2oVhSLE5IEDT7f3BGV+v0f4YzTiV2k05i8nTUNMTiImO6CiKFClpNy9822EvV47jMn33/iMr/0YjgRj0vBFdJkIL6la3YY1voPBdltnfOReWL70jlqdufZi0vzwzrz4W8FoiEnDB2p4jFmRy2+7m27gk3yrMfnXPQ7abTNicjTEZIeIyQ6oLqqk0l6vbR9I2UlMcnjkAFmF0Gia/730CzKajGJSNo/UkmdqKSYXXzge5w29lmKyvf1yc+FvCKMhJv2aLEZiMv7hu7YfIPTy3we9s9peTD737PMRnqCIydEQkx0iJjug6qiGzdV7gUm598V3G5e/VGe3Ejkm31q8tbX2QK0LQ9D7mIzw9pThbaiWPJN5TEZ+Q888Jg8fPjrkNyRH/M1hNMSkX5PFSEzGf4heNf22yQ5jMs4eEw4xORpiskPEZAdUI9WTwoGUMWOSwyOHLLWYlD9afkFGQ0yGz8kTpyK/oWcbk2eWzqrlD5a/RYyGmPRrsphOYtL2ezK7isnnnn0+5hMUMTkaYrJDxGQHVCY1IUm5e+cvavnTmO/1Gicmr712h8MjB46YbM7wNqz6lZi22zrRPrJvxDYm42+jJ8vfIkYz8Jj8fPueX5PFSEwGfrWGIduYlKhTyy9kHpMxY0wQk6MhJjtETHZAxVJzlQ6k3Hr/a6ukbDsm5XJyeCQEMdmc4W1Y9W82MTk+xOSIv0WMhpj0a7IYiclom+YjxGQNxORoiMkOEZMdUMlkZXP1nlrRNFZ7vbYXk+5rP9RiMVjEZHPEZG3EZEv8LWI0xKRfk8UQk7WHmAznV2k0xGSHiMkOqHAyVPVAyndf/UQtoZKWYnLj8pccHolxvY/J5YsrsincqpMnzDaYiMkmI/eFWv5g+VvEaMxvWGJSraJtxGQNxORoiMkOEZMdUO1kThIxzteHmMckX/uBQr2PybyGmGwyxOSIv0WMhpj0a7IYYrL2EJPh/CqNhpjsEDHZAVVQLal0IOXN1V119hCGMSlBu735jVoO4BCTSQ0x2WSIyRF/ixgNMenXZDHEZO0hJsP5VRoNMdkhYrIDqqPaI4W2tfa1Wvs0NQ6kNIlJd3gk+7WiBDGZ1BCTTYaYHPG3iNEQk35NFkNM1h5iMpxfpdEQkx0iJjugaqptlQ6k3L3zbfher81jUpbA135gJmIyqSEmmwwxOeJvEaMhJv2aLIaYrD3EZDi/SqMhJjtETHZABVUclfZ6DTyQsklMcngkwhGTSQ0x2WSyi0m5u8XtW3flktvyt4jRyALVJW+ImFSraBsxWQMxOZpoj1hichIx2QGVVTFtXP4yMCn3vvhu5oGU9WLyrcVbW2sP1FmAEsRkUlP1bzYxOT7mzWNIilG2k04vnV08dlyu9dxT8/5C5zDEpF+TxRCTtYeYDOdXaTTEZIeIyQ6ouIqs0l6v5QdSVo1JDo9EPcRkUkNMNpnUYvLh7pPliytSj3ml4+QQk35NFkNM1h5iMpxfpdEQkx0iJjugEqsTkpS7d/6iLtg00/Z6rRST1167w+GRqIeYTGqIySaTTkzKJbG9a7odYtKvyWKIydpDTIbzqzQaYrJDxGQHVGV1qNKBlFvvf62SMjAm5VwcHokmiMmkhphsMinEZM8y0g0x6ddkMcRk7SEmw/lVGg0x2SFisgOqtTq3uXpPXcJp1F6vM2OSwyNhgphMaojJJtNtTD7cfXJm6XV/Ufo1xKRfk8UQk7WHmAznV2k0xGSHiMkOjForHVUPpLz22h05V3lMblz+ksMjYYKYTGqIySbTYUzubN9fML0uSQ0x6ddkMcRk7SEmw/lVGg0x2SFisgOutRL07qufVPr6kJtT3tKU1Ny98636R6A2YjKpISabTFcxeXvrbu4fsVM+xKRfk8UQk7WHmAznV2k0xGSHiMkOqIRLTaUDKYEIiMmkhphsMp3E5M72/X6XpAwx6ddkMcRk7SEmw/lVGg0x2SFisgMq3hL09ksfhx9ICbSNmExqiMkmEz8m+71362iISb8miyEmaw8xGc6v0miIyQ4Rkx1Q5ZasSgdSAu0hJpMaYrLJxI/Jkyde8evu9RCTfk0WQ0zWHmIynF+l0RCTHSImO6CaLXHs9YrOEZNJDTHZZCLH5FXT7Z6Uh5j0a7IYYrL2EJPh/CqNhpjsEDHZAVVrWdi4/CVJia4Qk0kNMdlkIsfkEHZwdUNM+jVZDDFZe4jJcH6VRkNMdoiY7IDqtFyw1yu6QkwmNcRkk4kZk8N5W1KGmPRrshhisvYQk+H8Ko2GmOwQMdkBFWl5kaTc+eixukZAq4jJpIaYbDIxY3I4b0vKEJN+TRZDTNYeYjKcX6XREJMdIiY7oPIsRxxIiZiIyaSGmGwy0WJSVuRXOYwhJv2aLIaYrD3EZDi/SqMhJjtETHZAhVm+tta+VlcNaEPvY/LIoaPyFyUXe7tP1A1STs7ir6fFEJOBBvIhrqMhJv2aLIaYrD3EZDi/SqMhJjtETHZAJVm+1t/aUVcNaEPvYzJaYHSCmByfaPf1oPZxlSEm/ZoshpisPcRkOL9KoyEmO0RMdkAlWb6IScRBTGaNmByfOPf17Vt3/foGM8SkX5PFEJO1h5gM51dpNMRkh4jJDqgkyxcxiTiIyawRk+MT575evrTi19fCyA2yeOy4bIIL+VWqzS/OaIhJvyaLISZrjzyw1SpaRUyOhpjsEDHZAZVk+SImEYf5dmfDv5fEZCXE5PjEua/bOGDy8OGjyxdXHlY8YrZE4jcsMalW0TZisgZicjTEZIeIyQ6oJMsXMYk4iMmsEZPjE+e+tr3NZc6fe1Otojli0pB5TN6+dVetom3EZA3E5GiIyQ4Rkx1QSZYvYhJx9D4mf7d2Q62iT4jJ8YkTk3Nz8359FnNm6axavgli0pBEhV+TxUhMxn+Fi5isgZgcDTHZIWKyAyrJ8kVMIo7UYnJv94lfkNHED6SYiMnxibCNbvv4lC7d2W5lK42YNGQek/Ff4br67j/51VvMy3//K7X8QsSkGmJyJmJyEjHZAZVk+SImEUdqMSn8goyGmAwfYnIm249yPXnilFq+FWLSkESF4dvREpORf9G+/bPx8zwxWW+IyZmIyUnEZAdUkuWLmEQcvY/J5Usravl9QkyOT4SYlFX4lVlMezc4MWlIosL29nxt6R/UKloll//M0ut+3RYT+CRPTKohJmciJicRkx1QSZYvYhJxJBiTttttkbc/IiMmxydCTK6vbfiVWUx7F5iYNGQeFS/+7BdqFa2yvfz79u0LfIWOmFRDTM5ETE4iJjugkixfxCTiSDAmjxw66pdlMbI1o5bfJ7bbOsTkTLbbOu1tohGThsyjaH7+R2oVrZLL71dsMeHHfBKTaojJmYjJScRkB1SS5YuYRBwJxuTiCz/3y7KYw4eOquX3CTE5PtnFpFq4IdsHBjFpu5to5A90tf0o1/ALT0yqISZnIiYnEZMdUEmWL2IScSQYk7bbbTJ7dt8FnxpicnyIyRFi0pbtp6HKROuKH4ruxCt+rRYjMRn4jEpMqiEmZyImJxGTHVBJli9iEnEkGJPLl1b8sowm5psAkRGT40NMjhCTtv5la9uvzGjm538U50Wuzz+951dpNOH76BKTaojJmYjJScRkB1SS5YuYRBwJxqTtZ5zI9OMvSiHbbR1icibbbZ32csL2gUFMPvzqsV+Z3URIC/O3JWWee/Z5tZZpiEk1xORMxOQkYrIDKsnyRUwijgRjUv5u+WXZTUtfDd85YnJ8sovJ9jbRiElb0hW2HwwmMz//o7afl8zflpQJ/14TYlINMTkTMTmJmOyASrJ8EZOII8GYFIZfEe5m8dhxtYp+ICbHJ7uYDPxUzBqISVvSFebHcsscWHi6vXenpSQXTH+/ZCp9dBAxqYaYnImYnERMdkAlWb6IScSRZkzafqCrm8DvRovpYePtSGJyfCLEpKzCr8xi2tu4JCbN2X4m6mj+2+Fn2nh/so2SlAn/9B1BTKohJmciJicRkx1QSZYvYhJxpBmT5p/B4+bqb2PH0iQJSPl7KdtYc0/Nn1l6Xf20KmJyfCLEpO0+2C1t68ivjzy6/DoshpgUD796bL7HhJsDC0/b9qR0bxslKRN+wKQgJtUQkzMRk5OIyQ6oJMsXMYk40ozJ27fu+sVZT+TNEUcCcn3txumls+qwq+Z/6my3dYjJmfZ2n/iVGY3hZZaH2fLFlTYqgpgU5mmh5uSJU82T8vNP75l/4s5o9u3bV+kpgphUQ0zORExOIiY7oJIsX8Qk4kgzJkVLbwLIyNZ229Ukm/XSw7JlL9tSJb0k11GdsSpicnwixKSwfWTKo7H5UXPyeJPfO9t3I8eHmHRa2tN1fCQp19duyB2qVl1OTi83aautKyMxWSl3iUk1xORMxOQkYrIDKsnyRUwijmRjso2Puxgf2YiX7TbZSq663TZJ/tBKOspfwdNLZxePHa8USA3/SBOT4xMnJs032eWhWO8tKXnwLF9caTshZIhJp709XSdHrpQ8n8j9K20pt788w8jdPSL/Irehe7nK/GNmp02lfVwFMamGmJyJmJxETHZAJVm+iEnEkWxMytaSX2L7I1tjbtNNLrz8MROy9nHuH4WcQMgWkkSjnKt5CzXsN9ttHWIyREsvcwTu5Th62cL2pisf8xtWroJftMVE22T89s/2T5i5TNV9XAUxqSbm5ferNBpiskPEZAdUkuWLmEQc5ttGhn8vbf+QpzkNP4OHmByfODFpu7mjZmH/QblP3esajvy3bJHLP8asRzXE5MjDrx77tQ5sDhx4Wt0UMxGTamJefr9KoyEmO0RMdkAlWb6IScQhf978867RGP69vNrmVnsi0/Cvne22DjEZQrar/PoGM8TkyA+B1Non3CQ7Nd6WFMSkGmJyJmJyEjHZAZVk+SImEUfKMbm3+yTaEUpdTcPP4CEmxydOTIoO3yTsZIjJcZ9/eq/3z0tqarwtKYhJNcTkTMTkJGKyAyrJ8kVMIo6UY1IsX3rHL7e/c/vWXXWtwxGT4xMtJtv+dKjUhpgcN7QjJ+u9LSmISTXE5EzE5CRisgMqyfJFTCKOxGNSLCz0/F2gJglHTI5PtJiUFflVDmOISeXhV497/7w0mpd/+St19QMRk2qIyZmIyUnEZAdUkuWLmEQc6cdk7zfcm3wGDzE5PtFiUgxqR0diclKE75xMYQ4ceLre99YIYlINMTkTMTmJmOyASrJ8EZOII/2YFP3eq/DwoaPq+oYjJscnZkya/+KkPMTkJCmN8+fe9Jegp1N7B1eHmFRDTM5ETE4iJjugkixfxCTiyCIm93af9Hinsrm5ebmC6ioHIibHJ2ZMDuHToUZDTBaS2Fg8dtxfiD5OwydzYlINMTkTMTmJmOyASrJ8EZOII4uYFDvb93u87V77M3iIyfGJGZPC/Hcn2SEmp3n41eMjh476y9Gv+R+/PKWubFXEpBpiciZichIx2QGVZPkiJhFHLjEppLj62pPLl1bUlQ1ETI5P5JgczpuTxGSJzz+917/9Jo4ceeZh3d0lRohJNcTkTMTkJGKyAyrJ8kVMIo6MYlL0tSdlk0td00DE5PhEjkkxhK+ukSEmy0lP9un9yeeefb55SQpiUg0xORMxOYmY7IBKsnwRk4gjr5gU0pP9ex9gYf9BdTUDEZPjEz8mRb+PmnNDTM708KvH/XgkvNbgw6UVYlINMTkTMTmJmOyASrJ8EZOII7uYFDvb9/vXk/U+g4eYHJ9OYjLZT4eSS7W+dsPknXxiMoS0R9af7yoPleVL76gr1QQxqYaYnImYnERMdkAlWb6IScSRY0wK2YI/eeIVv8peTL3tdWJyfDqJSZHaqxtSBVI1bk9Fk0dI7Q+ImqbHm4wfbvwhx5e6jhx55vaW8b1MTKohJmciJicRkx1QSZYvYhJxZBqTztUr1/vxFqU01YfEZOPpKiZFOj15Zuns+AFvJr/g5puS/d5kfLj7OKO3KP/60kMrT9rEpJqYl9+v0miIyQ4Rkx14+6WPVZVliphEHCbbmuMT+e/93u4T2W7L9FN5JKXkwjdJIGJyfDqMSdFtT8qvwOmls3IZ1KWS28SfosEQkzV8/um99PeeOHni1ORjxgoxqYaYnImYnERMduDRg+9vru6qMMsRMYk4co9JR7aHZLstl3cp5S+cNKTJroPE5Ph0G5PCPQ79pYk14zu1Fmr+UgsxWVuaSTntpQdbxKQaYnImYnISMdmZvS++kxhTeZYXYhJx9CMmR65euW77599qpJpk603+Upp85v4IMTk+ncekE23va7n319duzHxELb7wc3+GukNMNiTZlsg++XJblb/0YIiYVENMzkRMTiImO7b94Tf57vVKTCKOnsWkI5tuyxdXbLcDqs7c3LxcgDYCcpztdSQmDbUXD3Kny8M7/EG1fGnFn7PuEJNWbt+6K88J8b+UUm6ihnvU10BMqiEmZyImJxGTSfjX3/8px6QkJhGHbJLK3wlDcV7zDiQXZn3thmy9yR+V5jv7lY900eKx464e5XZQl6Qltndf/PtOXYCGknrsOZKUJl8/KPkhD62Q9yELqRuqKrW05mwft0ItP3072/dHT03+Pjad0YtZtR8zJmzv6PhXJN/Lr1bdkFp4e2xvcKGWnyNiMhU57vVKTALmbt+6u/nB1vLFFdnGkk182diq9M6YbJ/J6WWzXs578penzp+7IN0o22r9+IuF9sgWkjzw5AEjD7mZ70q5h5l7YUIeq/Kgjb8NjcjkXpZnEnmEyBOLe5CEPzWNPynJA4ZnJKBPiMm0SFK+98ZnqtmSRUwCMZW/IMrWPGzJg8q9tDHCIw2F3AOjkDolgP4hJlOUy16vxCQAAAAwWMRkum6u7iaelMQkAAAAMFjEZNISP5CSmAQAAAAGi5jMgCRlmm9REpMAAADAYBGT2UjwQEpiEgAAABgsYjInjx58f3N1VxVdh4hJAAAAYLCIyfykcyAlMQkAAAAMFjGZqz9+9LjzvV6JSQAAAGCwiMm8dXsgJTEJAAAADBYxmb29L77buPylyrw4iEkAAABgsIjJnujkQEpiEgAAABgsYrJXIu/1SkwCAAAAg0VM9tDN1d04SUlMAgAAAINFTPZTnL1eiUkAAABgsIjJPpOkfPfVT1QBGiImAQAAgMEiJvuvvQMpiUkAAABgsIjJobi5uqtSsDliEgAAABgsYnJAzA+kJCYBAACAwSImB2f3zrdWe70SkwAAAMBgEZMDZXIgJTEJAAAADBYxOVx7X3y3cflL1YeVEJMAAADAYBGTQ9fkQEpiEgAAABgsYhI/qLfXKzEJAAAADBYxif+y9f7XlZKSmAQAAAAGi5jE36i01ysxCQAAAAwWMYkCkpTvvvqJSsdJxCQAAAAwWMQkppp5ICUxCQAAAAwWMYkZbq7uqoYcISYBAACAwSImMdu0AymJSQAAAGCwiEmE2r3zrdrrlZgEAAAABouYRDXjB1ISkwAAAMBgEZOobO+L79yBlMQkAAAAMFjEJGqSpNze/Eb9IwAAAICBICYBAAAAAJURkwAAAACAyohJAAAAAEBlxCQAAAAAoDJiEgAAAABQGTEJAAAAAKiMmAQAAAAAVEZMAgAAAAAqIyYBAAAAAJURkwAAAACAyohJAAAAAEBlxCQAAAAAoDJiEgAAAABQGTEJAAAAAKiMmAQAAAAAVEZMAgAAAAAqIyYBAAAAAJURkwAAAACAyohJAAAAAEBlxCQAAAAAoDJiEgAAAABQGTEJAAAAAKiMmAQAAAAAVEZMAgAAAAAqIyYBAAAAAJURkwAAAACAyohJAAAAAEBlxCQAAAAAoDJiEgAAAABQGTEJAAAAAKiMmAQAAAAAVEZMAgAAAAAqIyYBAAAAAJURkwAAAACAyohJAAAAAEBlxCQAAAAAoDJiEgAAAABQGTEJAAAAAKiMmAQAAAAAVPToP/4/HwbxiR/GmZ4AAAAASUVORK5CYII=;" vertex="1" parent="1">
          <mxGeometry x="300" y="418" width="199.03" height="54" as="geometry" />
        </mxCell>
        <mxCell id="Z946En1CuJWLNQMD-FcK-51" value="" style="shape=image;verticalLabelPosition=bottom;labelBackgroundColor=default;verticalAlign=top;aspect=fixed;imageAspect=0;image=data:image/png,iVBORw0KGgoAAAANSUhEUgAABMQAAAFLCAIAAAC2jMcHAAAAAXNSR0IArs4c6QAAAARnQU1BAACxjwv8YQUAAAAJcEhZcwAADsMAAA7DAcdvqGQAAEG4SURBVHhe7d1PbxzXmajx0RcwmQ8gSt5LuvI6jhHfnRUaUVZWRr6w4g0ByYA8GxlXd2HFkYChIcCEFYDSZmRzccNFMKI3phYXoQx4NF7IFAyYMTwwJcgjZuEIEhBfwAsDd+7rnDM9nberq09VvXXqnKrnxQ+BI3ZX9T826+mu6v67//voPwAAAAAAqISYBAAAAABURkwCAAAAACojJgEAAAAAlRGTAAAAAIDKiEkAAAAAQGXEJAAAAACgMmISAAAAAFAZMQkAAAAAqIyYBAAAAABURkwCAAAAACojJgEAAAAAlRGTAAAAAIDKiEkAAAAAQGXEJAAAAACgMmISAAAAAFAZMQkAAAAAqIyYBAAAAABURkwCAAAAACojJgEAAAAAlRGTAAAAAIDKiEkAAAAAQGXEJAAAAACgMmISAAAAAFAZMQkAAAAAqIyYBAAAAABURkwCAAAAACojJgEAAAAAlRGTAAAAAIDKiEkAoXa271+7cn2avd0n6vQhNje21HJGNj/YUifuk7mn5n/y458uHjt+/tyF9bUbt2/dfVjrBgynbt5x9e47IZd55+59ufxqgUL+Ue7BCNcLAAB0hZgEEEra4O+mj0SFOn2Ik7885c8/MdJa6sR94q/k386B/QflWtdOu3J+HUVT6b6TOJRWlDtOLq0//6wZlfPyxRV5FJGXAAD0AzEJIBQxachfyaKpd0vO5JdeNIFr3Nm+f3rprJShP1uDuXrlPbVwAACQHWISQChi0pC/kkWTZkyeP3fBn9pi5LGklg8AALJDTAIIRUwa8leyaFKLyYe7Tw4fOupPajS3b91VawEAANkhJgGEIiYN+StZNKnFpHlJyqhVAACAHPEXHUAoYtKQv5JFk1RMnll63Z/IbqRO1VoAAECOiEkAoYhJQ/5KFk06Mbmzfd+fwnT6fc8CADAcxCSAUMSkIX8liyadmDx54hV/illzYP/BI4eOyl02Iv8yN1f8ua9nll5XKwIAADkiJgGEIiYN+StZNC3FpCx2GnXKEX+Bpo/cR9euXC//3kj5qTxy1tduLF9cOb10Vs4i/6FOAwAAckRMAghFTBryV7Jo6t2S5srvbpnz595UZwEAAINCTAIIRUwa8leyaBKJyeVLK/4CFc3JE6fU6QEAwNAQkwBCEZOG/JUsmkRisvxzXOXBoE4PAACGhpgEECrNmHy4+0RWvb5249qV68sXV86fuzBO/lF+ZPUV+bIcWaAs9vTSWbnk4+Rf3OrkVgpZnb+SRTPtlpRrqi6A/MfVK+/tbLcSn7J8f4GKRp24PZPX2pH/K3e34Z1bTu5WWZf6x6rknpUrMv4olf+WJZcfdAoAQLKISQChEolJ94EushW+eOz4gf0H/akDRhYo56qRXrI6uZxzTxV/Num0OXLo6MkTp/amdII/UdGM35JyZSU/ZO3l11RWNPN6yRKmKbzvSu6aCF8UKVdc7iy5y0Ju9oX9B+UWCI89ub7qFnBOT3zMrFwMST65K2UthddaLqFaiJAHzPhpQh4/cvnjVDEAAIZSjMn1X+/s/fE79Y8AOpdITE77wonwkWaY1niKFJpcDH+2WqMWOOJ/XDTulpRbu9KqJajKe9KfrmiqxuS0u8aE67eq6e5GboSrV95TC5wk19ef4W9nPBcnL4YsfPTTEUlH/+Oxcd99UuOKTNYsAAApSzEm/9d//z9ic/Xeowffqx8B6FAiMeneJmo4M9NLyAnkZP4MtUa6Vy1zxJ+iaCRF6qWU3DJqLeP8iYomnZhsfpvLzHyxYFpMuvurJALHF+IUxqQsR35Z6l2RVkMdAABb6cakePulj2///k/qpwC6kkhMlpyl0si2fnlyNK+akt1B/Smsp+R9OX+KokkkJk1K0o10dcmdOy0mZa7+9r2SyzB5QxXGZMPh/UkAQC6SjslRUrLXK5CCRGKy/CsrKs35cxfUwkeuXrnuT9RgSqLLn8J66q0xhZg0LEk3JV9eUhKT5TN5WGMbMSnD8ZMAgCxkEJMOB1ICnUskJtfXNvwpGs/c3Py0969k7f5EDUaunVrsiD9FCzPtGvkfF00KMXnyxCt+6XYjj1i1Fqd2TE6+8dtSTLqjLgEASFw2MSl+8+KtzdV76sQAoimPSfmpbKNXtfjCz/35J2Zasci5/Cn+c2SDXsjphSSQcP8d8lE90/YLLT+vW9H5//yCB/eVFfKPRw4dHT9jyTuf/hQtzLQ3tfyPi0ZuUnViETMmd7aD6k7uZbmFZe2BCTdtN+PJh1DgLF9aUYuqFJPy2HCP1ZmPTDmBWhEAAAnKKSYdDqQEulIek+ZTUizSOct//Y7BwgoaJ5VS/paXLEqdReztPvE/LprlS++o0ysP//rViOVfgeiXVWUkMFSsFs60PPY/LprOY/LM0ut+0UUjV/n8uTflVlXnkgfkzPczC9+crBeTcq0nlxYSk3KvyeVXDwZ5ZMoC/SmKhj1dAQDpyy8mnfff+Iy9XoHI0onJqkpapfDNq5LYsHrLyC9u1kirnF46q7JZatb/uGhyjEnJLb/oiVlYmPG5u+W3RuH+olVjsjAjnfKYlAs/7Yxib/eJnMCfdGJKPksJAIBE5BqTDgdSAjHlG5Ml7zQWxmHJNV0o+rLBGvzipoxcKmnIkg4peVMru5gsfx84pKlK3p+s+mKBmpKMdEpi8szS2cl3U5Xz5y74U09MyT7SAAAkIu+YFOz1CkSTb0yKko1+dUpREhsRYjIkQkpKL7uYLEv3haBbu2QJhS8WhMRk+ZuKIyWPq8JbVbk2/UOD5fZXJwYAIDXZx6QjSbm9+Y1aDgBbxKSb8r0uA/llFU1IhPQpJks+njdwReXvbcpP1enL799ph2gWahiTJb9TxCQAIH09iUmHvV6BVg0nJsvjZGH/webHs/llFc3QYtLk3Tl/hqKZvHblMVnpxQJiEgAwZL2KSWdz9d6jB9+rZQJobjgxKeZmfnnDU/OLx44vX1yp96mbfilFQ0yOppOYVCcuR0wCAIashzEpOJASaEN5TLovAKyq5NMs5afqAjRRNSZLUmpyFvYfPHni1PrajcB9I4U/Z9EQk6MhJgEASFk/Y9KRpGSvV8BQeUyGbDpPalgsEm+3b92VGjl/7sLppbOytGlK3mlUy3Rqvw0rVSnnVUub5E9dNCG3pFwjf+qJISbVTF47+Rf/s6JRJy5HTAIAhqzPMelwICVgJamY3Nm+L/U499SMnVFDRi15pPyb9MtnYf+Mb0f0pyuakFuSmFT8GYpm8trJv/ifFY06cTliEgAwZP2PSfGbF29trt5TawFQVToxuXxpxZ/IYtTCx50/96Y/Ua25+tvirhP+FEUTcksSk4o/Q9FMXjv5F/+zolEnLkdMAgCGbBAx6XAgJdBQIjFpW5IyavnKzvb9ku/EL5+5ufnJ76Vw/CmKJuSWJCYVf4aimbx28i/+Z0WjTlyOmAQADNmAYtK59tqn7PUK1JNCTEraLUzffK83ahWFZL1Xr1yXi+TPEzznz11Qi3L8j4sm5JYkJhV/hqKZvHbyL/5nRaNOXI6YBAAM2eBi0uFASqCGFGJSis7/2G7UKmaS22H54kpgWE7rLv/jogm5JYlJxZ+haCavnfyL/1nRqBOXay8mbW9kAADaMNCYFG+/9PHW2tdq1QBKpBCT5Ql35NDRxWPHZZmT/CmKRq2ikvW1G+UXaWH/QXUWx/+4aEJuyZJrFCEmp12peojJwiEmAQDpG25MOhxICYRLISZLvuFDLp468cje7hN/oqJRJ66h/HNf1Ykd/7OiCbklu41JuRfUiZsgJguHmAQApG/oMemw1ysQovOYLGnCxWPH1YnHGcZDoRrL9z8rmpBbMkJMlhdySbpXtb624Rc6MeV360j5iwWTn4Fk+HggJgEAQ0ZM/pfN1XskJVCi85gsaYBpn3PjGMbDNH5ZRaNO6fifFU3ILRkhJss/NdcwdW7fuusXOjGBb4GWPDILl2D4eGgYkyXvygaGNAAAHSIm/wZ7vQIliMkSfllFo07p+J8VTcgtGSEmy+9umfLbPFz5+4rTrs64ku9uKYxew8dDw5gsueRyF6sTAwCQGmKygCTl7p2/qEsFIOWYLN/yrhEPD6d8P2ShkvfWZNSJHf+zogmKkPZjUpQcoepmYf/B5YsrcvXVGUdkyfLT9bUbcrLTS2cXjx2X+pqsULmv/RInRi7DznbZDSJL8yctmjNLr6vTixqPh2maxGT599xYtToAAO0hJqfiQEpA6TwmxbS8kX+fPDROSBNKxpR/NaU6i7O+tiHnkviRs8sVL2lL+dHiC8f9sibm8KGj6vSO/3HRhNyScWKy/LBJNZJV4/y/Fs1k+ZcHoczJE6dUssrNLvdLSYW6KQzdODEpl0362T1+Jm9h+cfyh6WcQJ0FAIDUEJMzbK7eUxcPGCzZuvXbuUUTJyaPHDrqfzwxsmkuHSUXUly7cl024mUJc0/NeG9NRq3CmewoWZSsXZYphSkX25H/Ll9F4bUQ/sdFk05M7mzfn/nmZI2ZvE32dp8ErsiVasjdKjOt5OPEZOG4y+//T+kUvjgCAEBSiMnZOJAScFKIyUrvlQWOWoUja/c/bjbLl1bUkh3/46JJJybF8qV3/InsRrJfrUXMfHOyxqyv3VBrcTqMycA5eYIDJgEAGSAmQ7376ifs9YqBSyEmyy9DvVGrcKzekZt2vJ//cdEkFZPi5ekfElN71CrE3u6ThQXLMDt/7k21ipH0Y7L8MFEAABJBTFbDgZQYshRiUli9ZzgatXwhm/L+Z82m5P0lf4qiSS0mhfkbwoVr/OEDaYx6UgJYLXxc4jFZksEAACSFmKzs7Zc+3lr7Wl1mYAgSicl6yVGSoGr5ouRr9MPn8OGjJR/b409UNAnGpLh65brhO4e/m7YDqkVPnlk6qxarpByT5RkMAEBSiMmaOJASA5RITIpKySHLkUsu55rWk+NLdiR1Sj7pJ2SkZ0pKUvjTFU2aMSnkZl++9E7z2Jubm58Wk07tcB3d1+WSjUm5edXyAQBIGTHZCHu9YlBu37orm87T1IvJM0uvq+WMLB47rk48bm/3iZy3JDlkCaeXzo6nhWypjy9/ZHQCRdppfe2GLEQSJfAQSjmZWuk06jKMC7klS263aZ2mTjau6n0nV/D8uQuBN4ucRlYh96bcMteuXC/5UkpFkvKHD8sNWIUsP/Bmd+T6jq77JHXicnJ6fyEmZvGF4+E3kVx+ebyphQMAkDhi0sDG5S9JSqArkhDLF1ekbWRzXP5X/lsKsPxdwXrcFxu679+XFY3WKKSR5N/r5XTu5GaRPpRbxt04clO4/5Z/lBvE5I5wy5clF97sbdzX4UpicvR4GD1yRlfBkQeS/MswHzYAgH4gJm2w1ysADFBITAIA0FfEpCVJyt07f1FXBwDQV8QkAGDIiEl7HEgJAANBTAIAhoyYbMvm6j11vQAAPUNMAgCGjJhs0fpbO+qqAQD6hJgEAAwZMdkiYhIA+o2YBAAMGTHZImISAPqNmAQADBkx2SJiEgD6jZgEAAwZMdmiaTHJZ73mgnsKQDliEgAwZMRki6bF5G9evMVnvSbu0YPv13+9c+21T9W/A8A4YhIAMGTEZIumxaT76dsvfXz7939SP0LnJCMl9d9avCX3ETEJoBwxCQAYMmKyReUx6UiusC9lOnY+eiyRP37vqBMAwDhiEgAwZMRki0Ji0ln/9Q5J2a3dO99KOqr7hZgEUK4wJufm5o8cOrq3+0SdGACAniEmWxQek4K9Xrvy6MH3G5f/Td0dDjEJoJzEpFg8dvz00tlrV66vr93gDUkAwHAQky2qFJOOJOX25jfq9GjP1vtfu8MjCxGTAAAAwDTEZItqxKTDXq8R7Hz0+N1XP1G3vEJMAgAAANMQky2qHZPO5uo9krINcqtOHh5ZiJgEAAAApiEmW9QwJgUHUtoa/9qPEMQkAAAAMA0x2aLmMelIUu7e+YtaCKqSLA/PSIeYBAAAAKYhJltkFZMOB1LWtvPR48D9WhViEgAAAJiGmGyRbUw6m6v31NJQQvJbIlzdhuGISQAAAGAaYrJFbcSk4EDKEFUPjyxETAIAAADTEJMtaikmHekc9nqdZuejx5Lc6hargZgEAAAApiEmW9RqTDocSKnUPjyyEDEJAAAATENMtihCTIq3X/p4a+1rtYoBevTg+43L/6ZunIaISQAAAGAaYrJFcWLSGfiBlFvvf93w8MhCxCQAwMTO3fu3b93d/GDr2pXrheRHQk7zcPeJOi8AJIuYbFHMmHQGuNer1eGRhYhJAEANko7Sh6eXzi4eO35g/8G/qz5yrp/8+Kdy9vPnLqyv3ZDIVKsAgBQQky2KH5POxuUvh5CUch0ND48sREwCAMJtfrAlAVmvHkNG8lKWL225s31frRoAOkFMtqirmBT93uvVfe2HusptICYBADM93H1y/tyFuafmffNFmYX9B0+eOEVVAugWMdmiDmPSkaTcvfMXtfbctXR4ZCFiEgBQopOMHM2+ffs2P9hSFwkAYiImW9R5TDq9OZDS9ms/QhCTAIBpli+tdJWRbiQm9/i0HgCdIiZblEhMOpur99TFyIjE8PtvfKauUQTEJABg0s72/Z/8+Kc+6bqb+fkfqQsGAJERky1KKiZFjgdSusMjo+3XqhCTAADl9tbdhdY+YqfSPPfs8+qyAUBkxGSLUotJ591XP8llr9ftzW/a+9qPEMQkAGCclGS3u7aOz4s/+4W6eAAQGTHZojRj0kn8QMr4h0cWIiaVzQ+2Duw/iNp+t3ZD3aQAMpJUScqcP3dBXUIAiIyYbFHKMSnefunjrbWv1WXr3KMH329c/jd1UbtCTCoSk34Thqk1V6+8p25SALnY2b6fyN6tbvbt28frUwA6R0y2KPGYdJI6kLLDwyMLEZMKMdlwiEkgX0mVpAzfCwIgBcRki7KISafzvV53Pnrc7eGRhYhJhZhsOMQkkKnz5y74X+Nkhu8FAZACYrJFGcWks3H5y/hJKWtM4fDIQsSkQkw2HGISyNHO9n3/O5zS8L0gAFJATLYou5gUMfd6TerwyELEpEJMNhxiEsjRyROv+N/hlObI4WfU5QSA+IjJFuUYk44k5c5Hj9XFtrX1/tdJHR5ZiJhUiMmGQ0wC2UnzbUkZvhcEQAqIyRblG5NOSwdSJvK1HyGISYWYbDjEJJCdNN+WlOF7QQCkgJhsUe4x6Wyu3lOXv7aUD48sREwqxGTDISaB7KT2Ia5u9u3bx/MJgBSkGJM3V3fVNn2m+hGTovmBlI8efJ/a136EICYVYrLhsPEH5CXZJz2+FwRAIlKMSbH3xXdSYmrLPju9iUlHkrLeXq8Sogl+7UcIYlIhJhsOMQnkJdl9XPleEACJSDQmne0Pv8k0QpyexaRT6UDKjA6PLERMKsRkwyEmgbykuY+rDN8LAiARScek86/Zvq/Vy5gUcnfMPJDy0YPvJTvVGbNDTCrEZMMhJoGMJPs5rjJ8LwiARGQQkyLTvV77GpOOJOX25jfqqjk5Hh5ZiJhUiMmGQ0wCGVlf2/C/ui3MT37809NLZ69duX771t2du/cf/nWfVflf+W8hT7ZCfnr+3AU5mZz4yKGj/px/Hb4XBEAi8ohJR5LyvTc+U5v7Ket3TIreX0FiUiEmGw4xCWTkzNLr/lfXdKQM5blUrSuQlOf62g3Jy+WLK+pHANCJnGLSyWivV2Iyd8SkQkw2HGISyIhUn//VtZvz595UawGArOUXk87N1d30d6QkJnNHTCrEZMMhJoGMqD1Lm8/JE6fUKgAgd7nGpEj/QEpiMnfEpEJMNhxiEsiI/701moWFgzvb99UqACB3GcekI0mZ7F6vxGTuiEmFmGw4xCSQi73dJ/731mh4WxJAL2Ufk06aB1ISk7kjJhVisuEQk0Audu4afy+IPH+qVQBAD/QkJsWjB9/fXN1VMdAtYjJ3xKRCTDYcYhLIhfnT3d5fv/wDAHqmPzHpJHUgJTGZO2JSISYbDjEJ5ML26W5ubl4tHwD6oW8x6Wx/+E0Ke70Sk7kjJhVisuEQk0AubJ/uDh86qpYPAP3Qz5h0Oj+QkpjMHTGpEJMNh5gEcmH7dPeTH/9ULR8A+qHPMSm63euVmMwdMZmI8+cu+C0yo5EFqlUAwLhrV6775wuLISYB9FXPY9KRpHzvjc9UJ0RATOaOmEwEMQkgMmISAEIMIiad+Hu9EpO5IyYTQUwCiIyYBIAQA4pJ5+bqbrSkJCZzR0wmgpgEEBkxCQAhBheTItqBlMRk7ojJRBCTACIjJgEgxBBj0pGkbPstSmIyd8RkIohJAJERkwAQYrgx6bR6ICUxmTtiMhHEJIDIiEkACDH0mBSPHnx/c3VXVYQJYjJ3xGQiiEkAkRGTABCCmPTaOJCSmMwdMZkIYhJAZMQkAIQgJv/GHz96bLjXKzGZO2IyEcQkgMiISQAIQUwWsDqQkpjMHTGZCGISQGTEJACEICaL7X3x3cblL1VaVEVM5o6YTAQxCSAyYhIAQhCTZRoeSElM5o6YTMRgY3Ln7v3bt+6ur92Q7drliytysQvJj+QEmx9sCTmLWggKuZtL/WNG5MLLY0P9Y3se7j5xj0ZZrzzYyh+QjntYyqPXXVRZglpm4uTC++cLi+lZTAY+NQn3aMn0MdAhuYXl5lX/2AMljxz5v/Lv8lN1lkTIJR89+41fbDF6hKuzDAcxOVvtvV6JydwRk4mQJ2u/RWY0skC1ihS4rYfTS2cXjx0/sP/g3FPz/uJWnyOHjspC5GrKAtmAGye3htws7rY9s/S6+mn6ZJNFHiHu8l+98p76aXPuQSjbRrKWk788JQnU8KE4PrIceWTKMmXhcuHluqi1J0VuBH+5LSbrmJStZPeQcE9N/irVGvcYGD077Wzz4tffkCcoaSp5tMhtdeTwM+qneXFPJnJ1ajxy3LNEV3kml9wVozwHysM1/JLLw1suuTy5De2BTUyGurm6WzUpicncEZOJkOd0/1RtNLJAtYquyKaD/NGSv1gNN9HKR/4cnjxxqqttdxcnTZj8YZar7zbRRiM3uzpNoeaXf69xz49vYo6m+cNYFuu29tw2k1U0Vhq31RjhwanulJlOnnjFX0SLWVg4qJbfUPMHVTm5R+QBJvdO24+Khf0HpTQ63P7e3PBvN9Vm9QQlt8P4rX1g4Wl1mkJNnqBsb3P3fCK/zoYPG3l4tPGqmSLVav40KPdmV39z4yMmK6i61ysxmTtiMhH9i8nCNogw8oc5flU2v5rLl1bUMsPJTS13d+H2weFDR9WJCzXv/N812F1NtvZk46zw8gfG8Di5NeTel8de1TcKIoxcR7lUsjGqLrMVv5pezL59+1r6LZbFTnu8RRjZlJcHZ8yq/PbP/09+j/zq685rS/+gFhvO/S2QK+6XNTZyL6sTT5LL3+QJ1uQFKYlSuQ1bfT5pIyldQLb9con8we3qVZKYiMnKJCnfffUTVR2FiMncEZOJ6FNMlrRBzInzcq/TPCZrVJOQzeKTJ14puanlRlBnKdR8I6leDMvlL7/pJL3UWQq5gHRvF/hzpj3uJQ/zLTC/9F6MZMaO6dHR/z79NZdORh6rcZ6gTGLyxZ/9Qi02xMzbPORebhiTzz37vFpgIPeUEvkFqdOND0wYpW/Mh/rc3HyT10OzQEzWFHIgJTGZO2IyEf2ISdk4tt1xrvnEScrmDSNLUMssNzPDRqPOWKj5BlPVgzMDL3/IO6sSnP7UGY5tUvqF9mIMYzK1jByfCE9QJjEZuD/qyOef3gv5WyD38syDBhvGpKwifH9p97JU5BJTc+TQ0Ro7eLu3f5v/JWoynWx1RENMNnJzdVflxzhiMnfEZCJyj0n5SyY54ded3khvtLofTvM/4YFvIYrwjHQTskXePCYD30IUlS5/yM1SuPtcRiPX0epFfb/EXow0gLp2NaSckePTalKaxOT8/I/UYqcJzEg3ci/P3EO+eUyG/H7J81IKO9S4Ce9J+cu7vnaj24Ycnx73JDHZVMmBlMRk7ojJRGQdk/JnWDaG/IoTnvb2wzH5Wz5z66FqRroJ+bTA5jEZUn31Lr9ayKTmG8opjGw+Nn+9wy+rFxNeL9P87/f/OYvnpdE89+zzbbzmZRKTkmQzX5aqlJFuZLEzK7phTMqU7Oma7MsNcpXVRVWSqt/x6WtPEpM2du98O7nXKzGZO2IyEfnGZMpvSE7O6aXX2/iISJOYLKm+JvsPh3w0jslxQWqZ4+plpJuZm7DLl1b8STMfKZ+Q8i/hF9SLqbpf5bh//+rxyyeyfIkh8G20SqxisuSZpEmSzfxT1Twm5+d/NPm0/2GDJ6U4M+2RkNRbkYUjT/jqMvcAMWlJHUhJTOaOmExEjjEphXM4wz0MTd4CUkz+tBe+Qv+w8QvnIdumJjFZWH1y+RseRjuzr9bXNvxJezFXf1t/d0e/iF5M7c9N+fzTe3m9ITk5L//yV4aveVnFZOEzybd//uGPV5MnqJf//ldqmUrzmJQLP8qbFI4tDJ/xP1XN/xZEG/kFbONF224Rk8b2vvhu4/KXLkWIydwRk4nILiblj1y+W2xyyW170mTTZPIu+93ajeY3csgjwSQmJ9+4MNn0mbkXnESsP2lfpnZP+vP3YurF5Icbf8hia3vmHFh42uo5yiQmZSa/HURu7eZPUDM/J7Z5TMqcWXo9lwNox0euuNwCGWXkaEL+7uSFmGyFO5CSmMwdMZkIeeb1z8FG0+pTedYl6UYuv+FLpyYxKRt8owXKLWz12vn4YqcxicnxNy42P9iyetc65J1Vf9K+zNzcfL39Xf35ezE1voti9cp1f+ZejFVPWsXk+D3y+af3Fl+w+RTlI4efGS22kElMyu9Upq8ynDzR5UfL1h65wXv25iQx2aLdO9+qf3FUseSLmEQcGcVkD0rSjXvR14RJ+I2+BkPyyXDrIeRqmsSk+3aQh9af6+sWW87k8ic19V7s8Gfuxczc+1HpWUm6MelJq5gcHcX6jxffMXyCmnlwrElMMvGnZ29OEpMdUMWSL2ISceQSk5IK/ShJN82/Idox2db54f2orbvmh6HK/aUu7SSTGFs8dnyzhc/1DXln1WRbObUJ/7aVEX/OXkylZ7B/+cO2P1vvRlqr4Ts8VjG5b9++zz+9Z951slh1gRViMtPp2ZuTxGQHVLHki5hEHLnEZF6f3RoyJp87l/K2jvxFV5d2Usrv7Mltqy7tJPNfn0Sm6oPTn60XE/4M1oNP3CmfGnv8jrOKSZk29reUmCz/xGZiMt8JOUghF8RkB1Sx5IuYRBxZxOTVPu5IVm9/QiXxbZ2ZVzDlmAx5Z/VaHx+ZMiHXfZw/W/4jgRH4Jf5SGv0uSRm5NZpslBvGZBsj1678CGFiMt8JeSkwF8RkB1Sx5IuYRBzpx2RvDpWcnOa3VeLbOjO/qjHxYw7VpZ0kG6P+pL2bwKZy/HnyHwmMkO9Hdd9L4c/T65lZXCXSj8ny+5qYzHf6tKcrMdmBvS++e++Nz1S35KjfMblx+ctHD75XVw2dSD8mG35bYMrT/A9e4ts6M7fLE4/JmfeOnMCftHdT6c1Jf578RwIjZBffzz+9588wgKn9xZvpx2T5KybEZNZjciBJCojJzvzr7//09ksfq4DJS19j8tprd6Z9Ei86kXhM7mz37av81DS8uRLf1pn57lbiMRnynkziV6HJhG+N+TPkPyFvxEljLB6z+XaKLEZuk3o7uyYekzLlT7/EZNYT8nHcWSAmO3ZzdTffpOxfTMp98cePHqurg84lHpM9flvSTcM3JxPf1pn5YEi8xEL2eFx84ef+1L0bKQF1ZafxZ8h/JJxm7pu9+u4/+VMPZubnf1TjaSr9mCz/GhhiMuuR+07doZkiJru398V3UmWqarLQp5h8a/GWhD37taYp5Zjs/duSbprcYolv68yskcRjMuS4wf59zvBowl/p8GfIfyQm1VVTJDB6/7k7hVPjaSr9mCz/uFpiMusJ+TjxLBCTqZCkzO4tyt7EpFwRMjJlKcdkJ29LSt448qfI/1PL0+RvXuLbOjO/sTDxmAx5MPf1A13dBO7p6k+d/8yMyQ83/uBPOrCp8eZk+jF55PAz6jKPIyZzn5l7GWSBmExLXgdS9iAmr712h/1a05dsTMb5aBPZVji9dHZ97Yb81XlYtKl0+9Zd2Z6WK9XqVkXtjwpIfFvn8KGj6gIricdkyH6eVT/QVa7ykUNHJbNl4fK4Wr64Ijkq5DEgZGnyUJzkfionk7PII1bu9zgvdgQed+RPnf8cWHhaXbVxUhfx92qWO1oeM3KPj4v5apcbyexKH/Ar0o/JmXe33NT+pEyGE3KcQvqIyeQ8evD9zdVd1Txpyjom31q8JemuLjnSlGxMtvrdkrIddv7cm4X1WGJn+/6ZpbMLC/b9U/ujAhLf1pn5pmviMTnznVUx7VUPue4Sja4YJQJdJarzNiTLlLBs4wE5mpkvBziuh8PZ7nQgt7Nafm3rpVufcT7EVR458rCRCyP3b/lzlPx084Ot5Ysr8kCN0JZVP9Y1/ZgsfyOamMx9qr78kSZiMlFZHEiZaUxyeGR2ko3J9v6KSxBWzchxkpTmn+VY9TviRxLf1pGLpy6wknJMytb5/zz3prrAhdy1kP+VTWfZsndvdKvTtOrqlevtJWWNT16ZSUrJL91iZj7MrLT90TtyRSQO1UrDycOg1ScESa9KD4b0Y1LyuOQaEZO5j9XWSLeIyQ5sb36j/mWaP370OOW9XnOMyWuv3ZFQVxcYiUszJlvax1XywGq/l/Pn3vQLNZp6+ZHmts4Pb62cOCXVrS7tpDRjUi5/pTeu5Zo2eXnChPzKmL/G4aZJ3kyTY0xKWhw5dNSv0noaZuS4373/zy29siAxWek7QlKOSXmCmnmDpxyT8swpl81p72HZxsizq1zgOJdcHn7qPs0RMdkBSZr1X+/s/TE0aZI9kDKvmHz31U84PDJTacbk+tqGX5zdyN+w21uzvzYwnO3HeNb7Jjf5e+zPn8ZUzbDUYrLq5U9NGz1Z75FZLseYbG8fV/P3Tx7uPm7pQ4Yr7emaYEzKL/jppbMhr3OJpGJSuksuufziTHvZUdo4wW/ScunoLnnhbtvyL+3tWEFMoqZR3myu3gvc2XLvi+82Ln85OmMiconJtxZvba09UBcSGUkzJtv4o7h86R21lob2dp8Y/gms92cvnW2dehmWTkzmnpGOPCblivirZDS1D+gtkWNMtrSPq3lJOhJC8nj267CbSnu6JhWTNX7BO49JucySYetrN8IvtoSZ+TNA1ZELILfb8sUV6dvwS97GwzXOM0PbiMkOjHfO2y99fDv4Y2BSO5Ayi5iUCOfwyNylGZPme7+cPNHKK5SGnxJU77DJFGKyxlbaSAox2eTyJ8j8NzrkU4iqyi4mpSva+BzXlkrS+eEyW79TLTEZvjtuOjFZ7zj5rmLSNWTt3Z6XL73jFxR35GLL3V0pIBXzW5uYRE2qdoQkZY57vSYekxwe2RsJxmQbB0wG7tdUg/wF9etoPOEv+Y90HpMNP82o25jsWUY65m9O1v50qBI5xqTcDn59RnPgQNn3Uph4+NVj2weDzGtL/6DWMk0KMRl48HahyDE5ijF1MWqIfLFldU0ackTuKb9Qo4nwzBABMdkB1TwjlQ6kvLm623lSJhuTcstweGSfJBiT8mfJL8toWnpb0jG8AW/fqnxIZ8yNBjVNttJGuorJXmbkiO17aHJbqeU3l11MSpX5lRlNpbf4mjDfO/fFn/1CrWKabmPyuWefb3iQfLSYlLUsX1wxfDpavrTiF93mLCwcNH8Wtb3BIzwzREBMdkCVz7jfvHhrc/WeOv00ne/1mmBM8rUfvZRgTNpuaMq0+s3Fhulb40ux4mzrqJGVWm0HdxKTJhmcMvNNSbX85rKLyQ83/uBXZjRVv7OxNiki2zcny7/of1xXMWn1BBUhJg2fS8fdvnXXr6CdaeliC9sPjorwzBABMdkB1T+Tqh5I+e6rn6glxJFaTMrlISN7KcGYNL9INXYfDWe4U26Nm67tbR01CwsHbbchIsdke9tASTH/MGTzr83MLib/8aLlcWj79u2L9nXq3/7Z+Bk1/DN44sekPEEZ3rDtxWTbe0YY/lVS0/ZTaHbPDBEQkx1QCTTNtdc+TfxAynRi8tprd9ivtccSjEnbnfQi/DmxKiLZ8FJLnqmlbZ3JcVs/au3NRYtJ2cps9Q3qpEj7+attNAOPSYkK2zdMpMdivjf+L1vbfsUWIxc+cIf8mDHZRp61EZNtZ+SIX5/dyE0R4ZU4YnISMdkBFULlqh5Iqc7eqhRiUhJaQlpdAPRMgjFp+/e7jS82UKzqt8bHZppv6xROw0/ZKREhJqNtvaXD/H0JYtL2Fa4jh59Rq2iVXH75LfDrbjzhb6tGi8kXj/2ijTg3j0m5nNGeiPwqjSbaG+nE5CRisgMqh2aquterNJ5aQku6jUkOjxyOBGPSNjCaX56ZrDaYDh86qpY8U9sxKctv9dXotmNSLn+/D4+cxl9/ozF/DGQXk7a/aC//8ldqFa2yjWGJyeVLK2oVhSLE5IEDT7f3BGV+v0f4YzTiV2k05i8nTUNMTiImO6CiKFClpNy9822EvV47jMn33/iMr/0YjgRj0vBFdJkIL6la3YY1voPBdltnfOReWL70jlqdufZi0vzwzrz4W8FoiEnDB2p4jFmRy2+7m27gk3yrMfnXPQ7abTNicjTEZIeIyQ6oLqqk0l6vbR9I2UlMcnjkAFmF0Gia/730CzKajGJSNo/UkmdqKSYXXzge5w29lmKyvf1yc+FvCKMhJv2aLEZiMv7hu7YfIPTy3we9s9peTD737PMRnqCIydEQkx0iJjug6qiGzdV7gUm598V3G5e/VGe3Ejkm31q8tbX2QK0LQ9D7mIzw9pThbaiWPJN5TEZ+Q888Jg8fPjrkNyRH/M1hNMSkX5PFSEzGf4heNf22yQ5jMs4eEw4xORpiskPEZAdUI9WTwoGUMWOSwyOHLLWYlD9afkFGQ0yGz8kTpyK/oWcbk2eWzqrlD5a/RYyGmPRrsphOYtL2ezK7isnnnn0+5hMUMTkaYrJDxGQHVCY1IUm5e+cvavnTmO/1Gicmr712h8MjB46YbM7wNqz6lZi22zrRPrJvxDYm42+jJ8vfIkYz8Jj8fPueX5PFSEwGfrWGIduYlKhTyy9kHpMxY0wQk6MhJjtETHZAxVJzlQ6k3Hr/a6ukbDsm5XJyeCQEMdmc4W1Y9W82MTk+xOSIv0WMhpj0a7IYiclom+YjxGQNxORoiMkOEZMdUMlkZXP1nlrRNFZ7vbYXk+5rP9RiMVjEZHPEZG3EZEv8LWI0xKRfk8UQk7WHmAznV2k0xGSHiMkOqHAyVPVAyndf/UQtoZKWYnLj8pccHolxvY/J5YsrsincqpMnzDaYiMkmI/eFWv5g+VvEaMxvWGJSraJtxGQNxORoiMkOEZMdUO1kThIxzteHmMckX/uBQr2PybyGmGwyxOSIv0WMhpj0a7IYYrL2EJPh/CqNhpjsEDHZAVVQLal0IOXN1V119hCGMSlBu735jVoO4BCTSQ0x2WSIyRF/ixgNMenXZDHEZO0hJsP5VRoNMdkhYrIDqqPaI4W2tfa1Wvs0NQ6kNIlJd3gk+7WiBDGZ1BCTTYaYHPG3iNEQk35NFkNM1h5iMpxfpdEQkx0iJjugaqptlQ6k3L3zbfher81jUpbA135gJmIyqSEmmwwxOeJvEaMhJv2aLIaYrD3EZDi/SqMhJjtETHZABVUclfZ6DTyQsklMcngkwhGTSQ0x2WSyi0m5u8XtW3flktvyt4jRyALVJW+ImFSraBsxWQMxOZpoj1hichIx2QGVVTFtXP4yMCn3vvhu5oGU9WLyrcVbW2sP1FmAEsRkUlP1bzYxOT7mzWNIilG2k04vnV08dlyu9dxT8/5C5zDEpF+TxRCTtYeYDOdXaTTEZIeIyQ6ouIqs0l6v5QdSVo1JDo9EPcRkUkNMNpnUYvLh7pPliytSj3ml4+QQk35NFkNM1h5iMpxfpdEQkx0iJjugEqsTkpS7d/6iLtg00/Z6rRST1167w+GRqIeYTGqIySaTTkzKJbG9a7odYtKvyWKIydpDTIbzqzQaYrJDxGQHVGV1qNKBlFvvf62SMjAm5VwcHokmiMmkhphsMinEZM8y0g0x6ddkMcRk7SEmw/lVGg0x2SFisgOqtTq3uXpPXcJp1F6vM2OSwyNhgphMaojJJtNtTD7cfXJm6XV/Ufo1xKRfk8UQk7WHmAznV2k0xGSHiMkOjForHVUPpLz22h05V3lMblz+ksMjYYKYTGqIySbTYUzubN9fML0uSQ0x6ddkMcRk7SEmw/lVGg0x2SFisgOutRL07qufVPr6kJtT3tKU1Ny98636R6A2YjKpISabTFcxeXvrbu4fsVM+xKRfk8UQk7WHmAznV2k0xGSHiMkOqIRLTaUDKYEIiMmkhphsMp3E5M72/X6XpAwx6ddkMcRk7SEmw/lVGg0x2SFisgMq3hL09ksfhx9ICbSNmExqiMkmEz8m+71362iISb8miyEmaw8xGc6v0miIyQ4Rkx1Q5ZasSgdSAu0hJpMaYrLJxI/Jkyde8evu9RCTfk0WQ0zWHmIynF+l0RCTHSImO6CaLXHs9YrOEZNJDTHZZCLH5FXT7Z6Uh5j0a7IYYrL2EJPh/CqNhpjsEDHZAVVrWdi4/CVJia4Qk0kNMdlkIsfkEHZwdUNM+jVZDDFZe4jJcH6VRkNMdoiY7IDqtFyw1yu6QkwmNcRkk4kZk8N5W1KGmPRrshhisvYQk+H8Ko2GmOwQMdkBFWl5kaTc+eixukZAq4jJpIaYbDIxY3I4b0vKEJN+TRZDTNYeYjKcX6XREJMdIiY7oPIsRxxIiZiIyaSGmGwy0WJSVuRXOYwhJv2aLIaYrD3EZDi/SqMhJjtETHZAhVm+tta+VlcNaEPvY/LIoaPyFyUXe7tP1A1STs7ir6fFEJOBBvIhrqMhJv2aLIaYrD3EZDi/SqMhJjtETHZAJVm+1t/aUVcNaEPvYzJaYHSCmByfaPf1oPZxlSEm/ZoshpisPcRkOL9KoyEmO0RMdkAlWb6IScRBTGaNmByfOPf17Vt3/foGM8SkX5PFEJO1h5gM51dpNMRkh4jJDqgkyxcxiTiIyawRk+MT575evrTi19fCyA2yeOy4bIIL+VWqzS/OaIhJvyaLISZrjzyw1SpaRUyOhpjsEDHZAZVk+SImEYf5dmfDv5fEZCXE5PjEua/bOGDy8OGjyxdXHlY8YrZE4jcsMalW0TZisgZicjTEZIeIyQ6oJMsXMYk4iMmsEZPjE+e+tr3NZc6fe1Otojli0pB5TN6+dVetom3EZA3E5GiIyQ4Rkx1QSZYvYhJx9D4mf7d2Q62iT4jJ8YkTk3Nz8359FnNm6axavgli0pBEhV+TxUhMxn+Fi5isgZgcDTHZIWKyAyrJ8kVMIo7UYnJv94lfkNHED6SYiMnxibCNbvv4lC7d2W5lK42YNGQek/Ff4br67j/51VvMy3//K7X8QsSkGmJyJmJyEjHZAZVk+SImEUdqMSn8goyGmAwfYnIm249yPXnilFq+FWLSkESF4dvREpORf9G+/bPx8zwxWW+IyZmIyUnEZAdUkuWLmEQcvY/J5Usravl9QkyOT4SYlFX4lVlMezc4MWlIosL29nxt6R/UKloll//M0ut+3RYT+CRPTKohJmciJicRkx1QSZYvYhJxJBiTttttkbc/IiMmxydCTK6vbfiVWUx7F5iYNGQeFS/+7BdqFa2yvfz79u0LfIWOmFRDTM5ETE4iJjugkixfxCTiSDAmjxw66pdlMbI1o5bfJ7bbOsTkTLbbOu1tohGThsyjaH7+R2oVrZLL71dsMeHHfBKTaojJmYjJScRkB1SS5YuYRBwJxuTiCz/3y7KYw4eOquX3CTE5PtnFpFq4IdsHBjFpu5to5A90tf0o1/ALT0yqISZnIiYnEZMdUEmWL2IScSQYk7bbbTJ7dt8FnxpicnyIyRFi0pbtp6HKROuKH4ruxCt+rRYjMRn4jEpMqiEmZyImJxGTHVBJli9iEnEkGJPLl1b8sowm5psAkRGT40NMjhCTtv5la9uvzGjm538U50Wuzz+951dpNOH76BKTaojJmYjJScRkB1SS5YuYRBwJxqTtZ5zI9OMvSiHbbR1icibbbZ32csL2gUFMPvzqsV+Z3URIC/O3JWWee/Z5tZZpiEk1xORMxOQkYrIDKsnyRUwijgRjUv5u+WXZTUtfDd85YnJ8sovJ9jbRiElb0hW2HwwmMz//o7afl8zflpQJ/14TYlINMTkTMTmJmOyASrJ8EZOII8GYFIZfEe5m8dhxtYp+ICbHJ7uYDPxUzBqISVvSFebHcsscWHi6vXenpSQXTH+/ZCp9dBAxqYaYnImYnERMdkAlWb6IScSRZkzafqCrm8DvRovpYePtSGJyfCLEpKzCr8xi2tu4JCbN2X4m6mj+2+Fn2nh/so2SlAn/9B1BTKohJmciJicRkx1QSZYvYhJxpBmT5p/B4+bqb2PH0iQJSPl7KdtYc0/Nn1l6Xf20KmJyfCLEpO0+2C1t68ivjzy6/DoshpgUD796bL7HhJsDC0/b9qR0bxslKRN+wKQgJtUQkzMRk5OIyQ6oJMsXMYk40ozJ27fu+sVZT+TNEUcCcn3txumls+qwq+Z/6my3dYjJmfZ2n/iVGY3hZZaH2fLFlTYqgpgU5mmh5uSJU82T8vNP75l/4s5o9u3bV+kpgphUQ0zORExOIiY7oJIsX8Qk4kgzJkVLbwLIyNZ229Ukm/XSw7JlL9tSJb0k11GdsSpicnwixKSwfWTKo7H5UXPyeJPfO9t3I8eHmHRa2tN1fCQp19duyB2qVl1OTi83aautKyMxWSl3iUk1xORMxOQkYrIDKsnyRUwijmRjso2Puxgf2YiX7TbZSq663TZJ/tBKOspfwdNLZxePHa8USA3/SBOT4xMnJs032eWhWO8tKXnwLF9caTshZIhJp709XSdHrpQ8n8j9K20pt788w8jdPSL/Irehe7nK/GNmp02lfVwFMamGmJyJmJxETHZAJVm+iEnEkWxMytaSX2L7I1tjbtNNLrz8MROy9nHuH4WcQMgWkkSjnKt5CzXsN9ttHWIyREsvcwTu5Th62cL2pisf8xtWroJftMVE22T89s/2T5i5TNV9XAUxqSbm5ferNBpiskPEZAdUkuWLmEQc5ttGhn8vbf+QpzkNP4OHmByfODFpu7mjZmH/QblP3esajvy3bJHLP8asRzXE5MjDrx77tQ5sDhx4Wt0UMxGTamJefr9KoyEmO0RMdkAlWb6IScQhf978867RGP69vNrmVnsi0/Cvne22DjEZQrar/PoGM8TkyA+B1Non3CQ7Nd6WFMSkGmJyJmJyEjHZAZVk+SImEUfKMbm3+yTaEUpdTcPP4CEmxydOTIoO3yTsZIjJcZ9/eq/3z0tqarwtKYhJNcTkTMTkJGKyAyrJ8kVMIo6UY1IsX3rHL7e/c/vWXXWtwxGT4xMtJtv+dKjUhpgcN7QjJ+u9LSmISTXE5EzE5CRisgMqyfJFTCKOxGNSLCz0/F2gJglHTI5PtJiUFflVDmOISeXhV497/7w0mpd/+St19QMRk2qIyZmIyUnEZAdUkuWLmEQc6cdk7zfcm3wGDzE5PtFiUgxqR0diclKE75xMYQ4ceLre99YIYlINMTkTMTmJmOyASrJ8EZOII/2YFP3eq/DwoaPq+oYjJscnZkya/+KkPMTkJCmN8+fe9Jegp1N7B1eHmFRDTM5ETE4iJjugkixfxCTiyCIm93af9Hinsrm5ebmC6ioHIibHJ2ZMDuHToUZDTBaS2Fg8dtxfiD5OwydzYlINMTkTMTmJmOyASrJ8EZOII4uYFDvb93u87V77M3iIyfGJGZPC/Hcn2SEmp3n41eMjh476y9Gv+R+/PKWubFXEpBpiciZichIx2QGVZPkiJhFHLjEppLj62pPLl1bUlQ1ETI5P5JgczpuTxGSJzz+917/9Jo4ceeZh3d0lRohJNcTkTMTkJGKyAyrJ8kVMIo6MYlL0tSdlk0td00DE5PhEjkkxhK+ukSEmy0lP9un9yeeefb55SQpiUg0xORMxOYmY7IBKsnwRk4gjr5gU0pP9ex9gYf9BdTUDEZPjEz8mRb+PmnNDTM708KvH/XgkvNbgw6UVYlINMTkTMTmJmOyASrJ8EZOII7uYFDvb9/vXk/U+g4eYHJ9OYjLZT4eSS7W+dsPknXxiMoS0R9af7yoPleVL76gr1QQxqYaYnImYnERMdkAlWb6IScSRY0wK2YI/eeIVv8peTL3tdWJyfDqJSZHaqxtSBVI1bk9Fk0dI7Q+ImqbHm4wfbvwhx5e6jhx55vaW8b1MTKohJmciJicRkx1QSZYvYhJxZBqTztUr1/vxFqU01YfEZOPpKiZFOj15Zuns+AFvJr/g5puS/d5kfLj7OKO3KP/60kMrT9rEpJqYl9+v0miIyQ4Rkx14+6WPVZVliphEHCbbmuMT+e/93u4T2W7L9FN5JKXkwjdJIGJyfDqMSdFtT8qvwOmls3IZ1KWS28SfosEQkzV8/um99PeeOHni1ORjxgoxqYaYnImYnERMduDRg+9vru6qMMsRMYk4co9JR7aHZLstl3cp5S+cNKTJroPE5Ph0G5PCPQ79pYk14zu1Fmr+UgsxWVuaSTntpQdbxKQaYnImYnISMdmZvS++kxhTeZYXYhJx9CMmR65euW77599qpJpk603+Upp85v4IMTk+ncekE23va7n319duzHxELb7wc3+GukNMNiTZlsg++XJblb/0YIiYVENMzkRMTiImO7b94Tf57vVKTCKOnsWkI5tuyxdXbLcDqs7c3LxcgDYCcpztdSQmDbUXD3Kny8M7/EG1fGnFn7PuEJNWbt+6K88J8b+UUm6ihnvU10BMqiEmZyImJxGTSfjX3/8px6QkJhGHbJLK3wlDcV7zDiQXZn3thmy9yR+V5jv7lY900eKx464e5XZQl6Qltndf/PtOXYCGknrsOZKUJl8/KPkhD62Q9yELqRuqKrW05mwft0ItP3072/dHT03+Pjad0YtZtR8zJmzv6PhXJN/Lr1bdkFp4e2xvcKGWnyNiMhU57vVKTALmbt+6u/nB1vLFFdnGkk182diq9M6YbJ/J6WWzXs578penzp+7IN0o22r9+IuF9sgWkjzw5AEjD7mZ70q5h5l7YUIeq/Kgjb8NjcjkXpZnEnmEyBOLe5CEPzWNPynJA4ZnJKBPiMm0SFK+98ZnqtmSRUwCMZW/IMrWPGzJg8q9tDHCIw2F3AOjkDolgP4hJlOUy16vxCQAAAAwWMRkum6u7iaelMQkAAAAMFjEZNISP5CSmAQAAAAGi5jMgCRlmm9REpMAAADAYBGT2UjwQEpiEgAAABgsYjInjx58f3N1VxVdh4hJAAAAYLCIyfykcyAlMQkAAAAMFjGZqz9+9LjzvV6JSQAAAGCwiMm8dXsgJTEJAAAADBYxmb29L77buPylyrw4iEkAAABgsIjJnujkQEpiEgAAABgsYrJXIu/1SkwCAAAAg0VM9tDN1d04SUlMAgAAAINFTPZTnL1eiUkAAABgsIjJPpOkfPfVT1QBGiImAQAAgMEiJvuvvQMpiUkAAABgsIjJobi5uqtSsDliEgAAABgsYnJAzA+kJCYBAACAwSImB2f3zrdWe70SkwAAAMBgEZMDZXIgJTEJAAAADBYxOVx7X3y3cflL1YeVEJMAAADAYBGTQ9fkQEpiEgAAABgsYhI/qLfXKzEJAAAADBYxif+y9f7XlZKSmAQAAAAGi5jE36i01ysxCQAAAAwWMYkCkpTvvvqJSsdJxCQAAAAwWMQkppp5ICUxCQAAAAwWMYkZbq7uqoYcISYBAACAwSImMdu0AymJSQAAAGCwiEmE2r3zrdrrlZgEAAAABouYRDXjB1ISkwAAAMBgEZOobO+L79yBlMQkAAAAMFjEJGqSpNze/Eb9IwAAAICBICYBAAAAAJURkwAAAACAyohJAAAAAEBlxCQAAAAAoDJiEgAAAABQGTEJAAAAAKiMmAQAAAAAVEZMAgAAAAAqIyYBAAAAAJURkwAAAACAyohJAAAAAEBlxCQAAAAAoDJiEgAAAABQGTEJAAAAAKiMmAQAAAAAVEZMAgAAAAAqIyYBAAAAAJURkwAAAACAyohJAAAAAEBlxCQAAAAAoDJiEgAAAABQGTEJAAAAAKiMmAQAAAAAVEZMAgAAAAAqIyYBAAAAAJURkwAAAACAyohJAAAAAEBlxCQAAAAAoDJiEgAAAABQGTEJAAAAAKiMmAQAAAAAVEZMAgAAAAAqIyYBAAAAAJURkwAAAACAyohJAAAAAEBlxCQAAAAAoDJiEgAAAABQGTEJAAAAAKiMmAQAAAAAVPToP/4/HwbxiR/GmZ4AAAAASUVORK5CYII=;" vertex="1" parent="1">
          <mxGeometry x="325" y="-294" width="199.03" height="54" as="geometry" />
        </mxCell>
      </root>
    </mxGraphModel>
  </diagram>
</mxfile>
